/* XPM */
static char *result[] = {
/* columns rows colors chars-per-pixel */
"60 60 15 1 ",
"  c #221C1A",
". c #221C1B",
"X c #2D212E",
"o c #73172D",
"O c #333941",
"+ c #7A3045",
"@ c #4A5462",
"# c #B4202A",
"$ c #6D758C",
"% c #6D758D",
"& c #8B92AE",
"* c #8A93AF",
"= c #8B93AF",
"- c #B3B9D1",
"; c None",
/* pixels */
";;;;;;;;;;;;;;;;;;;;;;;;;;;;;;;;;;;;;;;;;;;;;;;;;;;;;;;;;;;;",
";;;;;;;;;;;;;;;;;;;;;;;;;;;;;;;;;;;;;;;;;;;;;;;;;;;;;;;;;;;;",
";;;;;;;;;;;;;;;;;;;;;;;;;;;;;;;;;;;;;;;;;;;;;;;;;;;;;;;;;;;;",
";;;;;;;;;;;;;;;;;;;;;;;;;;;;;;;;;;;;;;;;;;;;;;;;;;;;;;;;;;;;",
";;;;;;;;;;;;;;;;;;;;;;;;;        ;;;;;;;;;;;;;;;;;;;;;;;;;;;",
";;;;;;;;;;;;;;;;;;;;;;;;;        ;;;;;;;;;;;;;;;;;;;;;;;;;;;",
";;;;;;;;;;;;;;;;;;;;;;;  %%%%@@OO  ;;;;;;;;;;;;;;;;;;;;;;;;;",
";;;;;;;;;;;;;;;;;;;;;;;  %%%%@@OO  ;;;;;;;;;;;;;;;;;;;;;;;;;",
";;;;;;;;;;;;;;;;;;;;;  %%==--@@@@OO  ;;;;;;;;;;;;;;;;;;;;;;;",
";;;;;;;;;;;;;;;;;;;;;  %%==--@@@@OO  ;;;;;;;;;;;;;;;;;;;;;;;",
";;;;;;;;;;;;;;;;;;;  %%====--@@@@@@OO  ;;;;;;;;;;;;;;;;;;;;;",
";;;;;;;;;;;;;;;;;;;  %%====--@@@@@@OO  ;;;;;;;;;;;;;;;;;;;;;",
";;;;;;;;;;;;;;;;;;;  ====--==@@@@@@OO  ;;;;;;;;;;;;;;;;;;;;;",
";;;;;;;;;;;;;;;;;;;  ====--==@@@@@@OO  ;;;;;;;;;;;;;;;;;;;;;",
";;;;;;;;;;;;;;;;;;;  ====--@@@@@@@@OO  ;;;;;;;;;;;;;;;;;;;;;",
";;;;;;;;;;;;;;;;;;;  ====--@@@@@@@@OO  ;;;;;;;;;;;;;;;;;;;;;",
";;;;;;;;;;;;;;;;;  ==------@@@@@@OOOOOO  ;;;;;;;;;;;;;;;;;;;",
";;;;;;;;;;;;;;;;;  ==------@@@@@@OOOOOO  ;;;;;;;;;;;;;;;;;;;",
";;;;;;;;;;;;;;;;;  %%            OOOOOO  ;;;;;;;;;;;;;;;;;;;",
";;;;;;;;;;;;;;;;;  %%            OOOOOO  ;;;;;;;;;;;;;;;;;;;",
";;;;;;;;;;;;;;;;;;;  ----==@@@@OOOOOO  ;;;;;;;;;;;;;;;;;;;;;",
";;;;;;;;;;;;;;;;;;;  ----==@@@@OOOOOO  ;;;;;;;;;;;;;;;;;;;;;",
";;;;;;;;;;;;;;;;;;;  %%%%    OOOO    ;;;;;;;;;;;;;;;;;;;;;;;",
";;;;;;;;;;;;;;;;;;;  %%%%    OOOO    ;;;;;;;;;;;;;;;;;;;;;;;",
";;;;;;;;;;;;;;;;;--==  ====@@OO  ++%%==--;;;;;;;;;;;;;;;;;;;",
";;;;;;;;;;;;;;;;;--==  ====@@OO  ++%%==--;;;;;;;;;;;;;;;;;;;",
";;;;;;;;;;;;;;;;;====%%        @@@@%%===*;;;;;;;;;;;;;;;;;;;",
";;;;;;;;;;;;;;;;;====%%        @@@@%%===*;;;;;;;;;;;;;;;;;;;",
";;;;;;;;;;;;;;;  %%%%@@%%%%%%%%%%%%@@%%%$  ;;;;;;;;;;;;;;;;;",
";;;;;;;;;;;;;;;  %%%%@@%%%%%%%%%%%%@@%%%$  ;;;;;;;;;;;;;;;;;",
";;;;;;;;;;;;;;;  OOOOoo%%==----==%%ooOOOOOO  ;;;;;;;;;;;;;;;",
";;;;;;;;;;;;;;;  OOOOoo%%==----==%%ooOOOOOO  ;;;;;;;;;;;;;;;",
";;;;;;;;;;;;;  OO@@OO  oo########oo  OOOO@@OO  ;;;;;;;;;;;;;",
";;;;;;;;;;;;;  OO@@OO  oo########oo  OOOO@@OO  ;;;;;;;;;;;;;",
";;;;;;;;;;;;;  @@OO@@  oooooooooooooo  @@OO@@  ;;;;;;;;;;;;;",
";;;;;;;;;;;;;  @@OO@@  oooooooooooooo  @@OO@@  ;;;;;;;;;;;;;",
";;;;;;;;;;;;;  OO@@OO  oooooooooooo  %%----=&  ;;;;;;;;;;;;;",
";;;;;;;;;;;;;  OO@@OO  oooooooooooo  %%----=&  ;;;;;;;;;;;;;",
";;;;;;;;;;;;;  ==----%%  %%----%%%$ .==----%$  ;;;;;;;;;;;;;",
";;;;;;;;;;;;;  ==----%%  %%----%%%$ .==----%$  ;;;;;;;;;;;;;",
";;;;;;;;;;;;;  %%----==  ooooooooOO  @@%%@@  ;;;;;;;;;;;;;;;",
";;;;;;;;;;;;;  %%----==  ooooooooOO  @@%%@@  ;;;;;;;;;;;;;;;",
";;;;;;;;;;;;;;;  @@%%  OOoo####ooOOOO      ;;;;;;;;;;;;;;;;;",
";;;;;;;;;;;;;;;  @@%%  OOoo####ooOOOO      ;;;;;;;;;;;;;;;;;",
";;;;;;;;;;;;;;;;;    OOOOoo####ooOOOO  ;;;;;;;;;;;;;;;;;;;;;",
";;;;;;;;;;;;;;;;;    OOOOoo####ooOOOO  ;;;;;;;;;;;;;;;;;;;;;",
";;;;;;;;;;;;;;;;;;;  OOOOOO    OOOOOO  ;;;;;;;;;;;;;;;;;;;;;",
";;;;;;;;;;;;;;;;;;;  OOOOOO    OOOOOO  ;;;;;;;;;;;;;;;;;;;;;",
";;;;;;;;;;;;;;;;;XX  OOOOOO    OOOOOO  XX;;;;;;;;;;;;;;;;;;;",
";;;;;;;;;;;;;;;;;XX  OOOOOO    OOOOOO  XX;;;;;;;;;;;;;;;;;;;",
";;;;;;;;;;;;;;;XX    @@==@@    @@==@@  XXXX;;;;;;;;;;;;;;;;;",
";;;;;;;;;;;;;;;XX    @@==@@    @@==@@  XXXX;;;;;;;;;;;;;;;;;",
";;;;;;;;;;;;;;;XX  %%----%%    %%--%$  XXXX;;;;;;;;;;;;;;;;;",
";;;;;;;;;;;;;;;XX  %%----%%    %%--%$  XXXX;;;;;;;;;;;;;;;;;",
";;;;;;;;;;;;;;;XX          XXXX      XXXXXX;;;;;;;;;;;;;;;;;",
";;;;;;;;;;;;;;;XX          XXXX      XXXXXX;;;;;;;;;;;;;;;;;",
";;;;;;;;;;;;;;;;;XXXXXXXXXXXXXXXXXXXXXXXX;;;;;;;;;;;;;;;;;;;",
";;;;;;;;;;;;;;;;;XXXXXXXXXXXXXXXXXXXXXXXX;;;;;;;;;;;;;;;;;;;",
";;;;;;;;;;;;;;;;;;;XXXXXXXXXXXXXXXXXXXX;;;;;;;;;;;;;;;;;;;;;",
";;;;;;;;;;;;;;;;;;;XXXXXXXXXXXXXXXXXXXX;;;;;;;;;;;;;;;;;;;;;"
};
