/* XPM */
static char *result[] = {
/* columns rows colors chars-per-pixel */
"60 60 136 2 ",
"   c #56524D",
".  c #5F574C",
"X  c #565554",
"o  c #5C5851",
"O  c #665C4E",
"+  c #6B5E4D",
"@  c #6E624F",
"#  c #71624B",
"$  c #7B674B",
"%  c #7E6A4D",
"&  c #6E6453",
"*  c #64635C",
"=  c #69665D",
"-  c #6A685F",
";  c #746652",
":  c #7B6A52",
">  c #706E64",
",  c #757164",
"<  c #7C7667",
"1  c #71706A",
"2  c #7E7C6D",
"3  c #836D4C",
"4  c #896F4C",
"5  c #8D724B",
"6  c #91744A",
"7  c #97784E",
"8  c #9C7A4B",
"9  c #816E53",
"0  c #8C7553",
"q  c #85785F",
"w  c #8B785B",
"e  c #947A55",
"r  c #A37E4B",
"t  c #807664",
"y  c #837C6C",
"u  c #9F8153",
"i  c #97815F",
"p  c #A6804C",
"a  c #AF864E",
"s  c #B1874D",
"d  c #B5894B",
"f  c #BC8D49",
"g  c #BF904C",
"h  c #A68352",
"j  c #AC8651",
"k  c #AE8853",
"l  c #A48658",
"z  c #AC8C5B",
"x  c #B28C54",
"c  c #B88E51",
"v  c #B69057",
"b  c #BB9153",
"n  c #B5945F",
"m  c #B8925A",
"M  c #BF985E",
"N  c #88826E",
"B  c #908164",
"V  c #9B8764",
"C  c #90856D",
"Z  c #95886C",
"A  c #9B8C6C",
"S  c #868371",
"D  c #8D8A76",
"F  c #8C8A7C",
"G  c #928972",
"H  c #998E72",
"J  c #968F7C",
"K  c #96917B",
"L  c #9C967E",
"P  c #9F997E",
"I  c #A38C62",
"U  c #A38F68",
"Y  c #A99064",
"T  c #A4926D",
"R  c #AD966A",
"E  c #B39461",
"W  c #B3996A",
"Q  c #B89968",
"!  c #A59674",
"~  c #AB9A73",
"^  c #A49B7D",
"/  c #AC9C7A",
"(  c #B39C75",
")  c #B9A177",
"_  c #BBA37A",
"`  c #C18F48",
"'  c #C1914D",
"]  c #C19453",
"[  c #C3A16D",
"{  c #C7AB7F",
"}  c #8F8A81",
"|  c #928F80",
" . c #9A9787",
".. c #9F9B84",
"X. c #9D9A8B",
"o. c #A29D83",
"O. c #A29E88",
"+. c #A5A087",
"@. c #A6A289",
"#. c #AAA58D",
"$. c #BDAA87",
"%. c #BAAA89",
"&. c #A7A394",
"*. c #ABA791",
"=. c #AEA992",
"-. c #ABA99B",
";. c #B1AC96",
":. c #B2AE99",
">. c #B5B19D",
",. c #B5B2A3",
"<. c #B9B6A2",
"1. c #BCB9A6",
"2. c #B7B5AC",
"3. c #B8B5A9",
"4. c #BEBBAA",
"5. c #C2AB84",
"6. c #C9B28D",
"7. c #C2B495",
"8. c #C3B598",
"9. c #C9BB9F",
"0. c #C4BBA5",
"q. c #C2BEAC",
"w. c #C0BEB1",
"e. c #C3C0AF",
"r. c #C5C2B2",
"t. c #C9C5B6",
"y. c #CAC7B9",
"u. c #CCCABC",
"i. c #CFCDC0",
"p. c #D0CEC1",
"a. c #D3D1C5",
"s. c #D7D4C9",
"d. c #D8D6CB",
"f. c #DAD8CE",
"g. c #DDDCD2",
"h. c #E0DFD6",
/* pixels */
"` ` ` ` ` ` ` ` ` ` ` ` ` ` ` ` ` ` ` ` ` ` ` ` ` ` ` ` ` ` ` ` ` ` ` ` ` ` ` ` ` ` ` ` ` ` ` ` ` ` ` ` ` ` ` ` ` ` ` ` ",
"` ` ` ` ` ` ` ` ` ` ` ` ` ` ` ` ` ` ` ` ` ` ` ` ` ` ` ` ` ` ` ` ` ` ` ` ` ` ` ` ` ` ` ` ` ` ` ` ` ` ` ` ` ` ` ` ` ` ` ` ",
"` ` ` ` ` ` ` ` ` ` ` ` ` ` ` ` ` ` ` ` ` ` ` ` ` ` ` ` ` ` ` ` ` ` ` ` ` ` ` ` ` ` ` ' ` ` ` ` ` ` ` ` ` ` ` ` ` ` ` ` ",
"` ` ` ` ` ` ` ` ` ` ` ` ` ` ` ` ` ` ` ` ` ` ` ` ` ` ` ` ` ` ` ` ` ` ` ` ` ` ` ` ` ` ` ` ` ` ` ` ` ` ` ` ` ` ` ` ` ` ` ` ",
"` ` ` ` ` ` ` ` ` ` ` ` ` ` ` ` ` d d s d f ` ` ` ` ` ` ` ` ` ` ` ` ` ` ` ` ` ` ` ` ` ` ` ` ` ` ` ` ` ` ` ` ` ` ` ` ` ` ",
"` ` ` ` ` ` ` ` ` ` ` ` ` ` ` ` d a a a a a f ` ` ` ` 3 G g ` ` ` ` ` ` ` ` ` ` ` ` ` ` ` ` ` ` ` ` ` ` ` ` ` ` ` ` ` ` ",
"` ` ` ` ` ` ` ` ` ` ` ` ` ` ' ` d a a a a a f ` ` ` ` ) @.o.g ` ` ` f s a a a d ` ` ` ` ` ` ` ` ` ` ` ` ` ` ` ` ` ` ` ` ",
"` ` ` ` ` ` ` ` ` s v M M M v p f d d d s f ` ` ` ` ' 6.>.o.^ ` ` ` s a a a a a f ` ` ` ` ` ` ` ` ` ` ` ` ` ` ` ` ` ` ` ",
"` ` ` ` ` ` ` d l G -.q.e.<.@.2 I 8 ` ` ` ` ` ` ` ` ` W :.o.U ` ` f s j a a a a d ` ` ` ` ` ` ` ` ` ` ` ` ` ` ` ` ` ` ` ",
"` ` ` ` ` ` ' R X.4.u.a.u.r.<.*.o.N 3 ` ` ` ` ` ` ` ` s E E s ` ` ` f f d f f f f ` ` ` ` ` ` ` ' 5.6.6.6.5._ ` ` ` ` ` ",
"` ` ` ` ` ` t ;.1.u.d.h.a.r.<.#.o.o.G ` ` ` ` ` ` ` ` ` ` ` ` ` ` ` ` ` ` ` ` ` ` ` ` ` ` f d @ 8.u.d.f.a.y.0.) ` ` ` ` ",
"` ` ` ` ` ` o.:.q.u.a.a.u.4.:.+.o.o...# ` ` ` ` ` f ` ` ` ` ` ` ` ` ` ` ` ` ` ` ` ` ` f f a + &.q.y.a.a.u.w.<.=.W ` ` ` ",
"` ` ` ` `   o.=.>.q.r.e.1.;.@.o.o.o.K + d ` ` ` ` ` ` ` f ] ] g f f f ` ` ` ` ` ` ` ` f a a ! =.>.<.4.1.<.:.#.O.y 7 ` ` ",
"` ` ` ` ' + o.@.=.:.>.;.=.+.o.o.o.D ; a d ` ` ` ` ` d m t q.4.<.| * l p ` ` ` ` ` ` f s a a Z o.o.#.#.@.@.o.o.o.o.I f ` ",
"` ` ` ` ` f T o.+.+.@.O.o.o.o.D A : a s f ` ` ` ` ] / 2.d.a.y.q.>.#.o., ` ` ` ` ` ` f a a a 3 T C 2 D o.o.o.o.o.o.w d ` ",
"` ` ` ` ` ` d E B > V Y Y Y Y e p s d f ` ` ` ` ` 7.i.d.g.f.u.r.<.;.O.o.3 ` ` ` ` ` a a a a a a e 4 e Y Y Y Y Y Y b ' ` ",
"` ` ` ` ` ` ` ` d p d s a a d f f f ` ` ` ` ` ` ; 1.t.i.s.a.u.r.<.;.O.o.G ` ` ` ` ` a a a a a a a a a s a a a s d ` ` ` ",
"` ` ` ` ` ` ` ` ` ` ` ` f ` f ` ' ` ` ` ` ` ` ` ..>.4.r.t.t.e.1.>.#.o.o.^ ` ` ` ` ` a a a a a a a a a a a a a s f ` ` ` ",
"` ` ` ` ` ` ` ` ` ` ` ` ` ` ` ` ` ` ` ` ` ` ` ` ..#.;.>.<.<.<.>.=.@.o.o.P ` ` ` ` ` s a a s a a a a a a a a s s ` ` ` ` ",
"` ` ` ` ` ` ` ` ` ` ` ` ` ` ` ` ` ` ` ` ` ` ` ` - o.+.@.#.*.#.@.+.o.o.D # ` ` ` ` ` f d a a a a a a a a a a s d ` ` ` ` ",
"` ` ` ` ` ` ` ` ` ` ` ` ` ` ` ` ` ` ` ` ` ` ` ` : ^ o.o.o.o.o.o.o.o.S % ` ` ` ` ` ` ` f d s a a a a a a a a d ` ` ` ` ` ",
"` ` ` ` ` ` ` ` ` ` ` ` ` ` ` ` ` ` ` ` ` ` ` d j o.o.o.o.o.o.o.o.S 9 s ` ` ` ` ` ` ` ` f s a s a a s a a f ` ` ` ` ` ` ",
"` ` ` ` ` ` f s d d d f ` ` ` ` ` ` ` ` ` ` ` s j Y o.o.o.o.o.o.S 9 p a ` ` ` ` ` ` ` ` ' ` f f s j d 5 O d ` ` ` ` ` ` ",
"` ` ` ` ` s d a a a a s ` ` ` ` ` ` ` ` ` ` ` s a a k j e a k k j a s s ` ` ` ` ` ` ` ` ` ` ` ` ` r } t.O.o ` ` ` ` ` ` ",
"` ` ` ` ` s a a a a a a ` ` ` ` ` ` ` ` ` ` ` ` s k a a a a a a s a s ` ` ` ` ` ` ` ` ` ` ` ` ` ` M >.*.o.o ` ` ` ` ` ` ",
"` ` ` ` ` ` d s a d s d ` ` ` ` ` ` ` ` ` ` ` ` f d d d s a s s s s f ' ` ` ` ` ` ` ` ` ` ` ` ` ` x J o./ f ` ` ` ` ` ` ",
"` ` ` ` ` ` ` f d d f ` ` ` ` ` ` ` ` ` ` ` ' ` ` ` ` ` f d f ' ` ` ` ` ` ` ` ` ` ` ` ` ` ` ` ` ` s e R b ` ` ` ` ` ` ` ",
"` ` ` ` ` ` ` ` ` ` ` ` ` ` ` ` ` ` ` a i _ ) % ` ` ` ` ` ` ` ` ` ` ` ` ` ` ` ` ` ` ` ` ` ` ` ' ` ` ` ` ` ` ` ` ` ` ` ` ",
"` ` ` ` ` ` ` ` ` ` ` ` ` ` ` ` ` ' 9.9.3.q.<. .~ A 5 ` ` ` ` ` ` ` ` ` ` ` ` ` ` f f : 7.%./ @ ` ` ` ` ` ` ` ` ` ` ` ` ",
"` ` ` ` ` ` ` ` ` ` ` ` ` d a a + 0.s.g.d.u.q.<.#...P n ` ` ` ` ` ` ` ` ` ` ` ` ` O t.u.y.<.@.P ; ` ` ` ` ` ` ` ` ` ` ` ",
"` ` ` ` ` ` ` ` ` ` f s a a a ; &.y.a.f.s.u.e.>.#.o.o.o.x f ` ` ` ` ` ` ` ` ` f & r.g.d.r.:.o.o.^ d ` ` ` ` ` ` ` ` ` ` ",
"` ` ` ` ` ` ` ` ' d s a a a e F >.4.r.t.t.q.<.=.@.o.o.o., f ` ` ` ` ` ` ` ` ` 0 -.y.a.t.<.@.o.o.L + ` ` ` ` ` ` ` ` ` ` ",
"` ` ` ` ` ` ` f d a a a a a Y O.@.=.>.>.>.>.#.@.o.o.o.o.S f ' ` ` ` ` ` ` ` d ! >.4.1.-.@.o.o.o...4 ` ` ` ` ` ` ` ` ` ` ",
"` ` ` ` ` ` ` f a a a a a a k ! o.+.@.@.@.+.o.o.o.o.o.S 5 f ` ` ` ` ` ` ` ` 6 N #.#.@.+.+.^ o.o.^ d ` ` ` ` ` ` ` ` ` ` ",
"` ` ` ` ` ` ` s a a a a a a a k z ^ o.o.o.o.o.o.o.o.H e d ` ` ` ` ` ` ` ` ` 5 2 +.o.o.^ o.o.o.o.z d ` ` ` ` ` ` ` ` ` ` ",
"` ` ` ` ` ` ` f a a a a a s a k a k h = o.o.o.o.o k a p f ` ` ` ` ` ` ` ` d f R o.o.o.o.o.o.o.k ` ` ` ` ` ` ` ` ` ` ` ` ",
"` ` ` ` ` ` ` f s a s k a a a a a a a a a a a a a a a a f f ` ` ` ` ` ` ` ` ` s T K L K P , p ` ` ` ` ` ` ` ` ` ` ` ` ` ",
"` ` ` ` ` ` ` ` f s a s a a a a a a a a a a a a a a d f ` ` ` ` ` ` ` ` ` ` f f g @ @ # 5 f ` ` ` ` ` ` ` ` ` ` ` ` ` ` ",
"` ` ` ` ` ` ` ` ` f d s a a a a a a a a a a a a d f ` ` ` ` ` ` ` ` ` ` ` f a a a a f f ` ` ` ` ` ` ` ` ` ` ` ` ` ` ` ` ",
"` ` ` ` ` ` d 5.[ ` f f f f d a a a a a s f f f ` ` ` ` ` ` ` ` ` ` ` ` ` d a a a a d ` ` ` ` ` ` ` ` ` ` ` ` ` ` ` ` ` ",
"` ` ` ` ` ` ! q.q.Q f ' ` ` ` f f f f f f ` ` ` ` ` ` ` ` ` ` ` ` ` ` ` f f a a a a d f ` ` ` ` ' ` ` ` ` ` ` ` ` ` ` ` ",
"` ` ` ` ` f o.o.+.o.b ` ` ` ` ` ` ` ` ` ` ` ` ` ` ` ` ` ` ` ` ' ` ` ` ` ` ' f s a f ` ` ` ` ` . 0.q.q.S r ` ` ` ` ` ` ` ",
"` ` ` ` ` ` ^ o.^ E ` f ` f ` f f ` ` ` ` ` ` ` ` ` ` ` ` ` o.=.y.{ ' ` ` ` ` ` f ` ` ` ` f ^ r.u.u.u.u.q.c ` ` ` ` ` ` ",
"` ` ` ` f f a s s a a a s a a s f f ` ` ` ` ` ` ` ` ` ` ` ` ~ o.;.<.M ` ` ` ` ` ` ` ` ` d q ,.a.d.d.a.p.t.1 ` ` ` ` ` ` ",
"` ` ` ` d a a a a a a a a a a a a a ` ` ` ` ` ` ` ` ` ` ` ` g ~ o.D x f ` ` ` ` ` ` ` ` l -.a.d.h.g.s.u.r.1.` ` ` ` ` ` ",
"` ` ` ` s s a a a a a a a a a a a a ` ` ` ` ` ` ` ` ` ` ` ` ` g n u d ` ` ` ` ` ` ` ` ] 7.y.a.f.h.f.a.y.q.<.3 ` ` ` ` ` ",
"` ` ` ` f s a a a a a a a a a a s f ` ` ` d $ + ` ` ` ` ` ` ` ` ` ` ` ` ` ` ` ` ` ` f < r.u.a.s.d.a.y.r.1.:.  ` ` ` ` ` ",
"` ` ` ' ` ` f f a a a a a a f f ` ` ` p < ;.4.w.0.$.` ` ` ` ` ` ` ` ` s s ` ` ` ` ` ] >.e.y.u.u.u.t.e.1.:.=.f ` ` ` ` ` ",
"` ` ` ` ` ` ` ` ` ` ` ` ` f f ` f ` d - =.q.a.g.p.1.( f ' ` ` ` ` ` s a a a d ` ` ` X <.4.r.r.r.r.4.<.>.*...` ` ` ` ` ` ",
"` ` ` ` ` ` ` ` ` ` f f a s s s a s j o.@.;.<.1.>.#.2 6 ` ` ` ` ` ` f d d d ` ` ` ` @ ..&.1.1.<.<.>.;.#.K & ` ` ` ` ` ` ",
"` ` ` ` ` ` ` ` ` f s a s s j j a a j S o.o.O.+.o.o.C 8 ` ` ` ` ` ` ` ` ` ` ` ` ` ` f % i _ K F #.=.o.G : f ` ` ` ` ` ` ",
"` ` ` ` ` ` ` ` f s a a j s s s a a a 9 N o.o.o.o.K w a f ` ` ` ` ` ` ` ` ` ` ` ` ` f ` ' ` 8 6 Y E z r d f ` ` ` ` ` ` ",
"` ` ` ` ` ` ` ` f a a a a a a a a a a j 8 : * * = l r a f ` ` ` ` ` ` ` ` ` ` ` ` ` ` ` ` ` ` ` ` ` ` ` ` ` ` ` ` ` ` ` ",
"` ` ` ` ` ` ` ` f a a a a a a a a a a a k a p h p a s a f ` ` ` ` ` ` ` ` ` ` ` ` ` ` ` ` ` ` ` ` ` ` f s s ` ` ` ` ` ` ",
"` ` ` ` ` ` ` ` ` d s a a a a a a a a a a a a a a a s f ` ` ` ` ` ` ` ` ` ` ` ` ` ` ` ` ` ` ` ` ` f a a a a s a d ` ` ` ",
"` ` ` ` ` ` ` ` ` ` ` d d s a a a a a a a s j d d d ` ` ` ` ` ` ` ` ` ` ` ` ` ` ` ` ` ` ` ` ` ` f a a a a a a a d f ` ` ",
"` ` ` ` ` ` ` ` ` ` ` ` ` ` d f d d f d d d d ` ` ` ` ` ` ` ` ` ` ` ` ` ` f f f ` ` ` ` ` ` ` ` ` d s a s a a a s f ` ` ",
"` ` ` ` ` ` ` ` ` ` ` ` ` ` ` ` ` ` ` ` ` ` ' ` ` ` ` ` ` ` ` ` ` f f d d d a d d f d ` ` ` ` ` ` f d s a a s f f ` ` ` ",
"` ` ` ` ` ` ` ` ` ` ` ` ` ` ` ` ` ` ` ` ` ` ` ` ` ` ` ` ` ` ` ` ` f f f d a a s f f f ` ` ` ` ` ` ` f f f f ` ` ` ` ` ` ",
"` ` ` ` ` ` ` ` ` ` ` ` ` ` ` ` ` ` ` ` ` ` ` ` ` ` ` ` ` ` ` ` ` ` ` f f ` f ` ` ` ` ` ` ` ` ` ` ` ` ' ` ` ` ` ` ` ` ` "
};
