/* XPM */
static char *result[] = {
/* columns rows colors chars-per-pixel */
"60 63 229 2 ",
"   c #1E1A15",
".  c #3D2C2B",
"X  c #3D3333",
"o  c #3C3A3D",
"O  c #383537",
"+  c #36302D",
"@  c #24201E",
"#  c #44332E",
"$  c #4A332C",
"%  c #473529",
"&  c #423433",
"*  c #4B3533",
"=  c #4C3A34",
"-  c #443B3B",
";  c #4D3C3B",
":  c #443838",
">  c #533633",
",  c #533B34",
"<  c #5A3C34",
"1  c #533D3A",
"2  c #5B3D3A",
"3  c #4C342C",
"4  c #613E37",
"5  c #4B443A",
"6  c #5D423D",
"7  c #574339",
"8  c #7B462E",
"9  c #644537",
"0  c #63443D",
"q  c #65493D",
"w  c #6A483C",
"e  c #754B3D",
"r  c #7B4C37",
"t  c #7C523C",
"y  c #3E3E41",
"u  c #483E42",
"i  c #523F41",
"p  c #3E4447",
"a  c #4C4344",
"s  c #4C494B",
"d  c #454447",
"f  c #544243",
"g  c #5B4443",
"h  c #5B4A44",
"j  c #5D4649",
"k  c #53494B",
"l  c #5C4C4C",
"z  c #524748",
"x  c #544E52",
"c  c #5E4D51",
"v  c #585658",
"b  c #525050",
"n  c #634442",
"m  c #644B44",
"M  c #6C4B43",
"N  c #634C4B",
"B  c #6D4E4C",
"V  c #684140",
"C  c #734E43",
"Z  c #704F48",
"A  c #64524C",
"S  c #6C524C",
"D  c #6F5145",
"F  c #745244",
"G  c #7C5343",
"H  c #73554C",
"J  c #7A544B",
"K  c #7C5A4D",
"L  c #795949",
"P  c #624E53",
"I  c #645354",
"U  c #6B5453",
"Y  c #6C5A55",
"T  c #64545B",
"R  c #6C5B5B",
"E  c #66595A",
"W  c #755B54",
"Q  c #7C5D53",
"!  c #735C5C",
"~  c #735451",
"^  c #6C605D",
"/  c #66615C",
"(  c #7C6152",
")  c #7C645B",
"_  c #766259",
"`  c #7E604F",
"'  c #6D5C63",
"]  c #6C6464",
"[  c #67676A",
"{  c #7A676A",
"}  c #766768",
"|  c #736D74",
" . c #797678",
".. c #757170",
"X. c #5C6061",
"o. c #834E36",
"O. c #83533C",
"+. c #8A553B",
"@. c #8E593E",
"#. c #875034",
"$. c #955B3E",
"%. c #915639",
"&. c #835643",
"*. c #835B46",
"=. c #8C5B44",
"-. c #845C4B",
";. c #8A5D4A",
":. c #855647",
">. c #935D43",
",. c #915E49",
"<. c #845D52",
"1. c #855A51",
"2. c #8C614D",
"3. c #86614E",
"4. c #956145",
"5. c #9A6245",
"6. c #94634C",
"7. c #9B644B",
"8. c #9E6A4E",
"9. c #97684F",
"0. c #836253",
"q. c #8C6353",
"w. c #84645B",
"e. c #8B655A",
"r. c #84695C",
"t. c #8D6B5D",
"y. c #8E6856",
"u. c #936552",
"i. c #946954",
"p. c #9C6B53",
"a. c #946C5B",
"s. c #9B6D5C",
"d. c #976657",
"f. c #9C725D",
"g. c #96735D",
"h. c #A36B4D",
"j. c #A56A4E",
"k. c #A26C52",
"l. c #A76E55",
"z. c #A57254",
"x. c #A3735C",
"c. c #AA755B",
"v. c #AB7457",
"b. c #B4795D",
"n. c #876B65",
"m. c #986E62",
"M. c #8D7266",
"N. c #9C7462",
"B. c #967666",
"V. c #867D7C",
"C. c #A27A63",
"Z. c #A77966",
"A. c #B67D62",
"S. c #A57F72",
"D. c #86817E",
"F. c #AD8168",
"G. c #B48467",
"H. c #AA8475",
"J. c #C6876A",
"K. c #7D7C82",
"L. c #837E82",
"P. c #7C8585",
"I. c #83868A",
"U. c #898788",
"Y. c #928A89",
"T. c #98918D",
"R. c #8C8D93",
"E. c #858F90",
"W. c #928E91",
"Q. c #8D9394",
"!. c #8D9696",
"~. c #929395",
"^. c #9B9594",
"/. c #92959A",
"(. c #949A9B",
"). c #9B9B9D",
"_. c #979997",
"`. c #8A918C",
"'. c #A29C9D",
"]. c #9BA19E",
"[. c #96A19D",
"{. c #959DA2",
"}. c #9C9DA2",
"|. c #999BA6",
" X c #9CA2A3",
".X c #9EA4AB",
"XX c #98A4A5",
"oX c #A3A3A4",
"OX c #A3A5A9",
"+X c #A3AAAB",
"@X c #ABACAD",
"#X c #A8A5A4",
"$X c #B3ADAC",
"%X c #B9ADAA",
"&X c #BAB1AE",
"*X c #AAACB3",
"=X c #A6ACB4",
"-X c #ACB2B4",
";X c #AAB4B8",
":X c #B3B3B3",
">X c #BAB3B2",
",X c #B2B5BB",
"<X c #B5BABC",
"1X c #B9BCBB",
"2X c #AEB0B2",
"3X c #A0A69F",
"4X c #C2B4B6",
"5X c #C4B9BB",
"6X c #C0AFB2",
"7X c #B8BCC2",
"8X c #BDC4C4",
"9X c #B9C6C7",
"0X c #C3C5C7",
"qX c #CAD6D8",
"wX c #D7D7D7",
"eX c #C3CECF",
"rX c #E2D9D6",
"tX c #E3DBDB",
"yX c #E7DBDC",
"uX c #E8DEE1",
"iX c #DAE5E4",
"pX c #E8EBEB",
"aX c #E4E8E8",
"sX c #FEF6F5",
"dX c #FEFBFB",
"fX c #FEF8F9",
"gX c #EDF3F3",
"hX c #E0E0DF",
"jX c None",
/* pixels */
"jXjXjXjXjXjXjXjXjXjXjXjXjXjXjXjXjXjXjXjXjXjXjXjXjXjXjXjXjXjXjXjXjXjXjXjXjXjXjXjXjXjXjXjXjXjXjXjXjXjXjXjXjXjXjXjXjXjXjXjX",
"jXjXjXjXjXjXjXjXjXjXjXjXjXjXjXjXjXjXjXjXjXjXjXjXjXjXjXjXjXjXjXjXjXjXjXjXjXjXjXjXjXjXjXjXjXjXjXjXjXjXjXjXjXjXjXjXjXjXjXjX",
"jXjXjXjXjXjXjXjXjXjXjXjXjXjXjXjXjXjXjXjXjXjXjXjXjXjXjXjXjXjXjXjXjXjXjXjXjXjXjXjXjXjXjXjXjXjXjXjXjXjXjXjXjXjXjXjXjXjXjXjX",
"jXjXjXjXjXjXjXjXjXjXjXjXjXjXjXjXjXjXjXjXjXjXjXjXjXjXjXjXjXjXjXjXjXjXjXjXjXjXjXjXjXjXjXjXjXjXjXjXjXjXjXjXjXjXjXjXjXjXjXjX",
"jXjXjXjXjXjXjXjXjXjXjXjXjXjXjXjXjXjXjXjXjXjXjXjXjXjXjXjXjXjXjXjXjXjXjXjXjXjXjXjXjXjXjXjXjXjXjXjXjXjXjXjXjXjXjXjXjXjXjXjX",
"jXjXjXjXjXjXjXjXjXjXjXjXjXjXjXjXjXjXjXjXjXjXjXjXjXjXjXjXjXjXjXjXjXjXjXjXjXjXjXjXjXjXjXjXjXjXjXjXjXjXjXjXjXjXjXjXjXjXjXjX",
"jXjXjXjXjXjXjXjXjXjXjXjXjXjXjXjXjXjXjXjXjXjXjXjXjXjX9X8X;X+X+X+X*X,X<X7X0XjXjXjXjXjXjXjXjXjXjXjXjXjXjXjXjXjXjXjXjXjXjXjX",
"jXjXjXjXjXjXjXjXjXjXjXjXjXjXjXjXjXjXjXjXjXjXjXjX+X@X<X-XXX/.Q.Q.{.+X:X<X8X:XoXjXjXjXjXjXjXjXjXjXjXjXjXjXjXjXjXjXjXjXjXjX",
"jXjXjXjXjXjXjXjXjXjXjXjXjXjXjXjXjXjXjXjXjX`.3X:X[.`.`...X.b p p v [ E._.oX2X&X#X'.).jXjXjXjXjXjXjXjXjXjXjXjXjXjXjXjXjXjX",
"jXjXjXjXjXjXjXjXjXjXjXjXjXjXjXjXjXjXjX_.].[.[.[...X.v b b p O + o s v [ ] U.'.#XoX'.W.R.jXjXjXjXjXjXjXjXjXjXjXjXjXjXjXjX",
"jXjXjXjXjXjXjXjXjXjXjXjXjXjXjXjXjXjXP.~.].3XD./ O   @ O p s p p d o + @   : } '.$X%X~.W.,XjXjXjXjXjXjXjXjXjXjXjXjXjXjXjX",
"jXjXjXjXjXjXjXjXjXjXjXjXjXjXjXjX~.(.[._.D.] b 5 5 5 5 b b s s s d 5 o : # 5 7 ^ M.D.^.#X:X:X-XjXjXjXjXjXjXjXjXjXjXjXjXjX",
"jXjXjXjXjXjXjXjXjXjXjXjXjXjXjX*X}.).'.V./ 5 X 5 A ^ ' T s b b b z a a h / 7 7 5 h Y Y.#X@X@X+X;XjXjXjXjXjXjXjXjXjXjXjXjX",
"jXjXjXjXjXjXjXjXjXjXjXjXjXjX1X7X:X'. .l % 5 m ( ( W ) U 5 l A A l f 5 m ) ( D q = . _ Y.oX_.XX7X<XjXjXjXjXjXjXjXjXjXjXjX",
"jXjXjXjXjXjXjXjXjXjXjXjXjXjX#X1XoXD.l 5 = D ) M.r.( <.~ i N I I l h 5 D r.` ` ` q 7 q / V.Q. XXX!.P.jXjXjXjXjXjXjXjXjXjX",
"jXjXjXjXjXjXjXjXjXjXjXjXjXU._.#XV.I # < D r.B.B.a.e.n.~ V N U I A 7 7 q t.3.` F.t.S % : v I. XP.P.P.[.jXjXjXjXjXjXjXjXjX",
"jXjXjXjXjXjXjXjXjXjXjXjXjX#XW.] f = A H Q 0.a.Z.N.a.1.1.V P B P A 6 6 L g.y.y.F.y.L q 5 X v P.E.!.E.[.jXjXjXjXjXjXjXjXjX",
"jXjXjXjXjXjXjXjXjXjXjXjX:X:XU.a # ; ) Q J q.N.A.C.d.e.~ V B ~ U A D q ` F.g.i.F.y.L L A X d X.E.[.[.[.].jXjXjXjXjXjXjXjX",
"jXjXjXjXjXjXjXjXjXjXjXOXOX$X .& 7 U M.Q G s.Z.A.l.7.d.:.V B ~ P A q q *.F.f.z.p.4.` M...x O y P.+X-X].!.jXjXjXjXjXjXjXjX",
"jXjXjXjXjXjXjXjXjXjXjX~._.(...& l W n.w.:.d.l.A.l.d.m.J V B ~ B D q 9 ` F.p.z.z.9.t r.M.' y y K.[.XX X XjXjXjXjXjXjXjXjX",
"jXjXjXjXjXjXjXjXjXjXjXQ.E.L.E : Y ) Q <.u.,.j.b.l.j.m.1.V B U B q q q ` G.z.h.G.9.t 0.n.} a y [ I.].+X@X:XjXjXjXjXjXjXjX",
"jXjXjXjXjXjXjXjXjXjXjXOXQ.[ s - Y ) J C &.9.b.J.l.7.d.1.V B U P A A 9 ` G.z.h.v.8.t F S ] c s v  ..X#X+X:XjXjXjXjXjXjXjX",
"jXjXjXjXjXjXjXjXjXjXjX(.P.v a z I W Q G r p.A.J.l.7.d.1.i B U B q q 9 3.G.z.h.z.8.O.F S W ' v s [ ).].#X*XjXjXjXjXjXjXjX",
"jXjXjXjXjXjXjXjXjXjXjXI.| u d I N H r.-.O.7.b.b.j.7.d.J 4 B U P A q 9 3.G.z.h.z.5.+.L H R ' ' y X.~.(.oX@X:XjXjXjXjXjXjX",
"jXjXjXjXjXjXjXjXjXjX;XP.[ y u ' Y Q e.-.=.,.j.j.j.>.q.J 2 U R N m m 7 G G.k.4.5.>.&.;.w.! ' T o x K./.OX*X2XjXjXjXjXjXjX",
"jXjXjXjXjXjXjXjXjXjX9XR.[ y i ' W Q e.;.:.>.7.5.>.>.d.Z 2 U Y l l h 9 L F.4.@.$.>.:.a.n.W ' T O s K.|.7X*X7XjXjXjXjXjXjX",
"jXjXjXjXjXjXjXjXjXjXqX|.| O u U U J ;.;.&.>.,.,.=.1.d.J 7 I I k g g 9 J g.@.r +.#.O.q.e.J } R O x R.;X7X,X0XjXjXjXjXjXjX",
"jXjXjXjXjXjXjXjXjXjXeX}.K.u i ' W K 1.:.,.,.k.l.,.,.e.J < N I l j m m K x.4.@.7.>.:.;.0.J Q _ X x /.=X7X=X0XjXjXjXjXjXjX",
"jXjXjXjXjXjXjXjXjXjX=X}.K.u i n.<.J -.-.,.k.Z.Z.d.q.e.F < N Y c N N B 0.Z.p.7.c.7.=.:.:.L w._ # x /.OX=XOX9XgXjXjXjXjXjX",
"jXjXjXjXjXjXjXjXjX{..X}.L.u j M.w.:.t o.&.k.l.x.6.;.3.F 6 A I I N m D q.S.c.l.c.j.O.&.:.L t.{ = x I./.{.|.0XgXjXjXjXjXjX",
"jXjXjXjXjXjXjXjXjX/.|.'.L.& i M.m.q.t o.+.k.c.k.6.;.;.F 7 S Y c N n B q.A.l.k.A.8.r &.-.3.t.{ * f  .I.E.(.9XpXjXjXjXjXjX",
"jXjXjXjXjXjXjXjXjX/.W.W.| & j M.S.m.=.O.%.l.c.,.7.9.2.C < N I A j n w :.Z.p.h.G.7.8 =.i.y.t.) $ u [ | P.~.8XaXjXjXjXjXjX",
"jXjXjXjXjXjXjXjXQ.~._.Y.} . 1 n.B.s.=.=.4.z.j.$.5.u.u.F > j U U B n V C p.7.j.A.k.#.9.g.g.t.` % 5 ..`._.].8XaXjXjXjXjXjX",
"jXjXjXjXjXjXjXjX_.].3XT.} . < w.a.p.6.5.5.j.j.%.$.6.u.G > V U ' B n 4 e ,.>.j.A.k.>.z.x.g.g.` % q D.3X@XoX8XiXjXjXjXjXjX",
"jXjXjXjXjXjXjXjX+X>X0X$XY.1 0 n.y.a.p.z.v.j.j.$.>.;.q.C i V B ! B 4 4 w ,.>.>.j.7.4.z.C.F.g.` % A ^.>X8X-XeXaXjXjXjXjXjX",
"jXjXjXjXjXjXjXjX3X3X:X#XV.; 0 e.3.2.8.k.h.h.5.$.#.o.&.e 2 V U ' P 2 4 e ,.>.%.>.5.5.p.x.B.g.0.3 Y ^.>X1X2X0XiXjXjXjXjXjX",
"jXjXjXjXjXjXjXjX_._.'.^.V.> 0 w.-.*.7.5.5.$.%.%.o.4 r 4 4 N U ' N 2 4 C ,.&.#.#.@.4.8.p.f.g.0.5 S T.$X>XoX8XiXjXjXjXjXjX",
"jXjXjXjXjXjXjXjX X'.}.'.V.1 0 w.3.2.9.4.$.5.$.$.#.o.r 4 > j U ' N > 4 C ,.+.#.#.@.4.p.g.g.g.3.7 / T.$X:XoX8XpXjXjXjXjXjX",
"jXjXjXjXjXjXjXjXoX].}.'.U.& 2 n.a.a.p.4.@.5.7.5.#.o.r 4 4 j U ' P i 4 C ,.:.#.%.@.4.9.F.F.g.` 7 A Y.#X@X_.1XgXjXjXjXjXjX",
"jXjXjXjXjXjXjXjX].[.(.W.n.. > n.B.N.f.4.@.8.k.7.>.&.:.V 2 j T ' P i V J m.,.,.d.9.*.3.` F.g.L % 7 D.^.).Q.-XaXjXjXjXjXjX",
"jXjXjXjXjXjXjXjX X[.(.).V.# > n.t.q.2.+.O.8.c.l.d.u.1.Z > P ' ' I g n K N.i.6.p.9.2.4.y.F.g.` 5 A `.).oX(.2XjXjXjXjXjXjX",
"jXjXjXjXjXjXjXqXXX_.{. XW.: 1 ! Q -.G r r p.c.c.l.d.e.J > j T { P i g Q H.f.p.z.9.*.` ` ( D.` 7 I W.oXOX X:XjXjXjXjXjXjX",
"jXjXjXjXjXjXjXqXXX[..X@X^.z j { 0.K G t t 9.x.Z.s.m.1.V > i T ' c i 2 Q H.f.a.f.9.t t t ` ( ( % c U.|.=X@X<XjXjXjXjXjXjX",
"jXjXjXjXjXjXjX9X[.[.;X=XW.u 1 W W K ;.&.O.9.f.x.s.s.e.B > N T } P i j Q H.f.i.p.y.L t L ( ( / % k L.OX7X-X<XjXjXjXjXjXjX",
"jXjXjXjXjXjXjX9XXX{.=X|.L.O & N H <.q.q.:.,.d.d.x.s.d.B > N E ' T j N Q H.a.q.a.i.y.3.( ) ) / . x I.=X7X-X,XjXjXjXjXjXjX",
"jXjXjXjXjXjXjXqXXX{..X|.K.u ; P W w.e.-.&.:.:.:.1.1.1.Z < g P T j i g ~ t.-.G &.-.y.0.( ( _ A % x I.|..X X+XjXjXjXjXjXjX",
"jXjXjXjXjXjXjXqX;XXX.X|.L.u u U W 0.w.-.&.G :.:.:.:.1.J 2 g l c l j g B 0.-.t G -.0.0.` L H A 5 T R.{.|.(.{.jXjXjXjXjXjX",
"jXjXjXjXjXjXjXiX9X;X7X,XR.u ; P U J K :.:.;.d.m.m.e.1.J n m l T I I N ~ a.y.q.y.y.3.` L _ _ / s [ .X.X.X/./.jXjXjXjXjXjX",
"jXjXjXjXjXjXjXiX9X9X9X9XoXx z U ! J F G G 2.a.Z.s.<.1.C < n l I P N h W a.q.q.f.y.L F D H _ R k | *X7X=X|.jXjXjXjXjXjXjX",
"jXjXjXjXjXjXjXjX9X9XqX9XOXv j ' ! J F e G ;.a.m.a.-.G w 3 6 c Y N f 6 D t.3.3.N.q.F w w S Y R k | ,X7X7X|.jXjXjXjXjXjXjX",
"jXjXjXjXjXjXjXjX;X=X*X*X/.k i I Y H M q w C K e.<.J e < 3 6 I ' l ; = n e.J F -.J w V n m l l a | ,X7X*X.X=XjXjXjXjXjXjX",
"jXjXjXjXjXjXjXjX-X X X XW.s u f j g < < < 4 0 Z m 0 9 > $ g I Y l ; * < D 0 9 m n 0 2 V g f 5 u | *XOX=X+XjXjXjXjXjXjXjX",
"jXjXjXjXjXjXjXiX@X].(. XQ.s o X # X . % $ $ $ > $ $ % # : f l l z i * & * * > > > > i i ; : X u | #X@X@X=XjXjXjXjXjXjXjX",
"jXjXjXjXjXjXjXiX-XoX). X`.b 5 : 5 : # : 1 ; , 5 ; ; ; ; ; z l b l l ; 1 f f g g i i i j i i u f } }.OX#XjXjXjXjXjXjXjXjX",
"jXjXjXjXjXjXjXaX1X$X@X$X'.../ X.v / I Y ^ ! R ] _ ^ ] ^ / ] } } { ..{ } { { { { { { { { } ' ' [ U.2X@X@XjXjXjXjXjXjXjXjX",
"jXjXjXjXjXjXjXjXwXwXqXwXeX:X$X$X%X$X$X%X&X%X%X6X&X&X&X>X&X&X>X&X4X5X4X4X4X4X4X5X4X6X4X4X>X$X$X$X5XwXwXjXjXjXjXjXjXjXjXjX",
"jXjXjXjXjXjXjXjXjXaXaXaXpXaXwXwXtXrXwXrXyXrXrXrXrXrXrXrXhXhXyXtXyXaXyXyXyXuXyXaXyXrXyXuXuXwXwXwXwXpXjXjXjXjXjXjXjXjXjXjX",
"jXjXjXjXjXjXjXjXjXjXdXdXdXdXdXdXdXdXsXsXdXsXsXsXdXsXsXdXdXdXdXsXsXdXfXsXsXsXfXfXsXsXfXfXfXdXdXdXjXjXjXjXjXjXjXjXjXjXjXjX",
"jXjXjXjXjXjXjXjXjXjXjXjXjXjXjXjXjXjXjXjXjXjXjXjXjXjXjXjXjXjXjXjXjXjXjXjXjXjXjXjXjXjXjXjXjXjXjXjXjXjXjXjXjXjXjXjXjXjXjXjX",
"jXjXjXjXjXjXjXjXjXjXjXjXjXjXjXjXjXjXjXjXjXjXjXjXjXjXjXjXjXjXjXjXjXjXjXjXjXjXjXjXjXjXjXjXjXjXjXjXjXjXjXjXjXjXjXjXjXjXjXjX",
"jXjXjXjXjXjXjXjXjXjXjXjXjXjXjXjXjXjXjXjXjXjXjXjXjXjXjXjXjXjXjXjXjXjXjXjXjXjXjXjXjXjXjXjXjXjXjXjXjXjXjXjXjXjXjXjXjXjXjXjX",
"jXjXjXjXjXjXjXjXjXjXjXjXjXjXjXjXjXjXjXjXjXjXjXjXjXjXjXjXjXjXjXjXjXjXjXjXjXjXjXjXjXjXjXjXjXjXjXjXjXjXjXjXjXjXjXjXjXjXjXjX",
"jXjXjXjXjXjXjXjXjXjXjXjXjXjXjXjXjXjXjXjXjXjXjXjXjXjXjXjXjXjXjXjXjXjXjXjXjXjXjXjXjXjXjXjXjXjXjXjXjXjXjXjXjXjXjXjXjXjXjXjX"
};
