/* XPM */
static char *result[] = {
/* columns rows colors chars-per-pixel */
"60 60 134 2 ",
"   c #0E0E12",
".  c #14141B",
"X  c #1C161B",
"o  c #1C181F",
"O  c #211B1D",
"+  c #1D1C27",
"@  c #1E1F29",
"#  c #251D23",
"$  c #25232D",
"%  c #2C232B",
"&  c #39242D",
"*  c #252631",
"=  c #2E2630",
"-  c #272835",
";  c #2E2B37",
":  c #2D2D3C",
">  c #332732",
",  c #342A34",
"<  c #3B2C36",
"1  c #342D3A",
"2  c #3C2E3A",
"3  c #3B3037",
"4  c #3D313D",
"5  c #41323E",
"6  c #333343",
"7  c #3C3343",
"8  c #3A3845",
"9  c #363749",
"0  c #3C3749",
"q  c #37394B",
"w  c #3B3A4D",
"e  c #3D3D52",
"r  c #443443",
"t  c #493645",
"y  c #453847",
"u  c #4B3946",
"i  c #41374A",
"p  c #483648",
"a  c #443B4B",
"s  c #4D3C4C",
"d  c #523D4D",
"f  c #443D51",
"g  c #4B3E52",
"h  c #533E51",
"j  c #3E4155",
"k  c #3F4358",
"l  c #54404F",
"z  c #424155",
"x  c #4C4254",
"c  c #45455B",
"v  c #4C465B",
"b  c #46495E",
"n  c #4B485E",
"m  c #554253",
"M  c #5A4455",
"N  c #534559",
"B  c #5D4659",
"V  c #54495D",
"C  c #5C495D",
"Z  c #604757",
"A  c #60475D",
"S  c #634A5D",
"D  c #474961",
"F  c #4C4C64",
"G  c #4E4F68",
"H  c #524D64",
"J  c #5B4E64",
"K  c #504F69",
"L  c #4A5065",
"P  c #4E5169",
"I  c #5C5067",
"U  c #52526D",
"Y  c #5A536C",
"T  c #505A6F",
"R  c #555672",
"E  c #5B5771",
"W  c #575874",
"Q  c #595976",
"!  c #5C5C7A",
"~  c #654D61",
"^  c #694E62",
"/  c #645165",
"(  c #6C5265",
")  c #65536C",
"_  c #6D546A",
"`  c #6D586F",
"'  c #705467",
"]  c #72556A",
"[  c #75596E",
"{  c #785A6F",
"}  c #6A5770",
"|  c #635B76",
" . c #6C5A72",
".. c #645E7C",
"X. c #755771",
"o. c #755B72",
"O. c #7B5C73",
"+. c #7D5E7A",
"@. c #5F607F",
"#. c #60607F",
"$. c #6E617D",
"%. c #7F6076",
"&. c #7E6179",
"*. c #806177",
"=. c #83637A",
"-. c #88677E",
";. c #89687F",
":. c #636383",
">. c #686282",
",. c #676789",
"<. c #666988",
"1. c #6A6A8C",
"2. c #726684",
"3. c #6E6D91",
"4. c #6F7094",
"5. c #727195",
"6. c #74749A",
"7. c #7A7AA2",
"8. c #856382",
"9. c #896781",
"0. c #8C6A83",
"q. c #916D86",
"w. c #926E89",
"e. c #8F708B",
"r. c #97738C",
"t. c #98738D",
"y. c #9F7893",
"u. c #A07895",
"i. c #A57C99",
"p. c #A87F9C",
"a. c #817FA8",
"s. c #8283AE",
"d. c #8788B3",
"f. c #AD84A2",
/* pixels */
"R :.K m A S *.' M ( A ( ` ! K U P 1.r B ] ] d { ' S A 2.n U R :.U m A ^ %.( M ' A ( ` ! P U P 1.r M ' ] d { ( S A 2.n P ",
"W R | m ' S l ( ] ' ( m ! 1.G G Q Y A ^ S h M S ] S J R <.w W R | l ' A l ( ] ( ( m ! 1.P U ! Y Z ( S M M S ] S J R <.z ",
"6 Q A ] S A 5 M ( _ S P U 6.@.b v ( ] ( M d S S ] ^ z G :.6.* Q A ' ( B 5 M ( ' A G U 5.#.c N ' ] ( m d A A ] ( z G :.6.",
"6 S ( ( ] V d ' ^ _ r R 1.Q @.v m S S ] u l S S S S z G G 4.; ~ ( ( _ N d ' ( ( r Q <.! @.v l S S ] u d S S S ~ k F G 5.",
"l ] S S C 5.8 M S ] x ! Q ! Y m ] ^ ] C #.N ' S ( J U Q U Q s ] A ( V 5.8 M S _ x ! Q ! U m [ S ' J #.x ' S ' ~ U Q U Q ",
"A { ] V n 6.5.& B s F U F U x ( { A M U 1.4.x M d F G Q U N S { ] C n 6.5.& B g F U F T x ( [ S M U 1.3.x M d F L Q U N ",
"{ ' ( J E U <.5.< I P F ! v M ] ( [ a n ! @.j l v R U Q w d O.' ^ J E U <.5.< J P F ! v B ] ( [ a F Q :.e h v R P Q 0 h ",
"M ~ S Y :.U E #.q Q U U U 4 ~ S ^ q.w #.Q :.U 9 W R W Y d o.l S S Y :.U R #.q R U U U 5 S S S w.e ..Q :.R 9 W R R Y m o.",
"^ ' S n P :.b c F Q ! F s *.M A S _ w Q R Q k Q W W H } ] u ( ( C n P :.b z G W Q F s =.M S S _ w Q R Q k Q R Q G _ ] d ",
"5 M v P P ! z b R Q Q x ] O.^ t M c L U R b c F Q W m S 9.S 5 M v G P @.z b R R Q m ] O.^ p M v F R R D c D ! R x S 0.S ",
"< a P R R k 6 Q T ! n M ^ [ ] 5 f R :.P z e R Q P E d M B q.% f G Q R z 6 Q T :.n M ^ [ ] 5 w U #.P k e R ! P | d M A ;.",
"2 U T U k o.@ 1.z :.7 B r.~ ^ g c W U K M n Q F :.W s ^ M O., K R U k o.@ 1.z :.7 B t.S ^ f b Q U K m n Q F @.Q d ^ B o.",
"D F U U C o.{ U Q P p ' d S s F L W D x O.B w T P s M A B h F F R K C o.o.P Q P y ' d S g F F Q F x *.B w U P s M A B h ",
"D P U n M O.=.g b v d d ^ M w D R Q G m O.w.5 U z h M ( s f D P K H m O.-.s b m g h ^ M e D R R K m o.q.7 P f l h ^ s z ",
"R U Q N ] M ] ( > M S S _ 2 G Q P 3.4 M ( o.M r M S S _ ; Q R P W N [ h _ _ > B S S _ < G Q U 3.4 B ] O.B 7 A S S _ , R ",
"U P P N B ] m M h ] ~ A I c z R R ,.2 ~ ( A r B ' _ m | c R U P K m A ] h M h ] ~ A I c f R U <.2 S ^ A t M ' ( M  .c U ",
"F E n s h ~ r t S [ M 7 6.6.c c ! V r d A d h t O.A m G 6.c F R H p m S t t S [ M 7 6.6.c c :.n t d S d h t +.M x P 6.c ",
"+ z p s A S 2 d M ^ A <.U ,.6.c z h M ~ M d d d ] S F D :.d.  z r s A S 2 d Z ^ A ,.K ,.6.c e h M S h d s h _ ~ H D :.s.",
"c M ^ ] M S < +.h A y 9 Q :.3.x 5 _ m S r 2 ] h A h e Q #.6.c m ( ] M S < *.h A p 0 W >.3.g 2 ] l S t 2 ' d S h e Q @.6.",
"t A ( M ~ 6.$ _ ( { 0 e Q U #.V ' { B C 1.v d ] S / e Q >.1.5 A ( m ~ 6.$ ] ^ o.0 e W R ! C ] X.Z C 1.v d ] ~ ~ w ! >.<.",
"B ( S S R :.5.C ( ~ F Q P R V M ' ( M K ,.>.r B ( F ! Q U v Z ( ~ C E :.6.C ( J F Q U R V M [ ( B K <.#.r B _ F ! Q R v ",
"M A ~ x F G 6.Q 7 J R @.F x m B h ] 7 F R 3.F 2 Y R ! U q B M S ~ g F G 6.! 7 J R ! G z h B h ] 7 F Y 3.F < K E ! U 9 B ",
"( d S 0 F G :.,.w U Q ! U = l ( S { ; F G ,.G z F ! Q J % A ( d S 0 F F ! ,.e U W :.K > h ^ S [ ; F U <.G c F ! Q J % C ",
"S X.S F W P :.F G :.:.F 0.-.5 ] [ [ b ! K ! b K ! ,.Q e.=.A S [ C G R U ,.F G :.:.F 9.=.r ] [ { b ! K ! b P ! :.Q r.=.A ",
"t ~ f U E Q G D @.Q ! N { w.Z 5 =.n Q R W b U Q ! W ` ( =.' t S a U Q Q G b ! Q @.N { w.A 2 =.D Q R R D R W ! Q ` ' =.' ",
"> f U R Q G q :.U >.K ] A o.w.u w U Q ! b b R Q ..Q M ' { p.X a T R Q G 9 <.U :.F ] S O.q.s w U W Q n c R W :.Q M ' { i.",
"g U Q W Y  .6 :.Q <.a u { { *.V G :.R Q J n E @.Q E d [ O.w.a U Q W Y $.6 :.Q ,.i u { ] *.V F <.R ! J H W :.W E d ] O.q.",
"U Q Q U  .q.s D T Q N S { { ` E Q ! ! J w.] G ! ! V A { %.` G Q Q U [ ;.s n R Q N S O.{ ` Y Q ! ! J q.] H ! Q M S { *._ ",
"U @.#.$.O.~ q.C z I ] ( _ _ K U :.:.U O.( t.N U I ( *.*.A H U @.#.$.%.^ q.C j I ] ' ] ' F U :.@.Y O.( t.N U I ~ %.%.Z K ",
"U >.Q a M =.-.0.1 ^ ] *.S r R ! U 3.2 A { 9.{ 4 ( { ] S a <.U <.Q i M *.-.0.1 ( ] *.S 5 Q ! U 3.2 A { ;.o.4 ( o.] S a <.",
":.R K a A ( O.O.B ^ ' _ ) U Q :.E 5.> d ( { l l S ] ] 2.e #.:.R U a B ( %.o.M ( ' ' ` T Q :.E 5.> d ' { h h ^ ] { 2.w #.",
"F 4.I ( A ^ S A ( ] ] ( 1.1.R F ! x ] ( Z ( ' ' S %.) :.4.n G 1.I ( A ^ S Z ( ] ] / 1.<.R F ! x ] ( Z ( ' ] S O.) :.5.F ",
"z v S ] ] ' l ^ S ( ] 3.L #.1.v U ' { %.S l S S ] _ | W Q 6.z v S { ' _ l ( S ' ' 3.F @.1.b U ' { %.S l A S _ _ | Q Q 6.",
"j s S { ] V l -.] -.m T K @.5.n m ( { ] l l { [ O.%.j T >.s.6 s S o.' C l -.] =.m E P ! 6.n m ( o.] l l { { { %.z T :.s.",
"l ( ' ] ) 6.z ] *.-.a P F P E V S *.] ` #.s ( *.=.C U E T #.u ( ] ] ) 5.f ] %.-.w U P P E C S *.]  .>.a ( =.=.C U Q U @.",
"{ ] ( ` Y 1.5.t ^ ( v W R U I ] _ ] &.U 1.1.~ ~ [ b R P b V O._ ( _ U 4.5.t ^ ( v Q U U I ] ' ] =.U <.1.~ S [ c R P b V ",
"^ ] { J b E 1.@.4 v P P U w l _ ( { a R P ,.z ~ w P R Q q S S { { I D W 1.#.4 v P P U 0 l ( ( { q U U <.c S w P R Q 8 S ",
"[ %.A z Q @.@.! j Q U P Q 5 ( { ( y.: R :.P R c ! U P Y r O.{ %.Z z Q @.@.@.e R U U | 5 ^ O.( y.6 U ! R R b ! P U E r O.",
"] ] / v Q F T R F U U E ] r.l ' ] ^ e @.c R z Q F R U &.=.l ] ] ~ v W F T R F U T U ] t.d _ _ ( e :.c R f Q G R U &.*.m ",
"u [ N L R P j F R F Q C ' w.] d _ n P R P D U W P U J %.r.( u [ N F R P j n T G Q J ( w.] d ] v G R G b R W K U I %.q.( ",
"m v P R Q D b Q Q Q j *.{ ' 0.M n F U ! n z ! U U U M _ o.i.d n P U Q D c Q Q Q j *.O.' ;.B n L U ! b z ! K K Y m ' o.u.",
", D R ! F &.. n :.1.3 A M %.q.C b Q ,.Y C 7 U U Q >.Z ] *.p.o D R :.L &.. b :.1.3 A M %.q.C v E <.Y C 7 U U W ,.A ] *.i.",
"F U W W o.f.^ - L G x ( / ' / n U Q ! H y.p w E G m ^ ( [ S D K W W o.f.^ - G K l ^ ^ ( / n P @.! J y.u w R F m S ' [ ~ ",
"! R R Y [ o.t.C E I A S ' ( E Q R U H =.{ r.I q Y A ^ ] ( E :.R R U [ { t.C Q I A ~ _ ( E Q T U F &.{ t.I w E S ( ' _ Y ",
"! K G / ~ { 9.0., ^ _ S M % z Q E :.7 S { 0.] , S ] ^ B 1 z :.G F ~ ~ o.;.;.< S _ S M = z E Q :.r S { 0.] 1 S ] ^ A 1 c ",
"W ! D f ( ( o.] u ( ] S Y F 9 U :.6.t ( ( ] M M ] ' S ..e w W Q F f ] ^ O.] u ( ] ~ Y D 9 U :.6.t ( ( ] M B ] ( S ..j w ",
":.1.I M ] S ^ S A S ^ / G 6.! ! Q v u O.M ( S A S S  .3.6.D ,.1.Y M ] S ~ S A A ^ ~ G 6.:.! Q v t O.M ( S A S S  .1.6.G ",
"@ H d B S d t ( Z [ ~ c G 4.<.z 2 ^ { A d s A g =.S J 1.:.6.. H d M S h u ( Z X.~ c G 4.:.z 3 S { A d d Z d =.S K 1.:.5.",
"9 M -.^ M r < _ X.*.u U W G ,.0 ^ A ~ M r < 9.] { S F W Q 7.: B =.^ M r < ] X.*.g U R G ,.w ^ A ^ M r < 9.' { S G R Q 7.",
"1 ^ ^ ^ A a.< h ' O.g U :.Q Q N h ^ ^ } ,.I ] ( ^ ` G Q W 1.% ~ ^ ^ M a.< h ] O.g K :.W Q N M ^ ^  .,.I _ ( ( ` P Q R <.",
"S ^ ( N Q 3.,.p ^ N D F ! R J ~ ^ ^ ^ G 3.:.m B M F U | Q J ~ ^ _ M E 3.,.p ^ M D G ! W I ~ ^ ^ ^ G 3.:.m A m F U Q Q J ",
"{ M ~ g W U 6.Q r D R R W F ^ ] ' X.y W Q 1.n # H R U ! J ( ] M S v W R 6.E 7 F U U W H ^ ] ^ X.i W Q ,.n # H R U Q J ' ",
";.S ^ v U R 3.Q w R D G Q < d { S r.6 R W :.F c W G G ..> < 0.~ ~ x K R 3.Q w R D P Q 1 d { ~ r.6 U W ,.n b R F K $.> 5 ",
"^ A t w ! ..! R W Q W F f.=.u M ^ _ 9 W :.:.G Q Q W H ) o.# ( B t e ! ! ! R Q Q W F f.=.t B ^ ( 9 R ,.! G Q ! R K ) o.% ",
"S A H K R W Q U K ! ,.N r ~ o.B ^ n R W W G G W ! ..C ^ 0.' S B J U W R W P R Q :.h r ~ { Z ^ n R W R G G E ! ! C ^ 0.] ",
"% x R R Q F 9 Q R ..F M ( [ X.r 6 Q K W D c U U W Q M o.] 9.O x R R Q G 9 W R :.H M ( [ X.r 6 Q U W b b U R W ! M X.' 8.",
"1 G E Q E ) 9 Q R ,.0 B ] ^ O.m G W W ! g f W ! ! K M A ^ w.$ G W Q R ) q Q R :.a M ] ^ o.x U W W ! g f R ! ! I h S ^ q.",
"n Q Q ! J +.o.f Q U p B S ] _ K W ! ! ` X.~ W R Q g Z ] ] ] D Q Q Q J +.O.e Q R f M ~ [ _ K W Q ! } o.~ E U ! f B ] ] ] ",
"R :.:.n ~ O.o.N b v M ( ( m z ! Q :.H ^ O.*., R f M S A s K R :.:.n ~ +.X.h D x M ^ ^ M f ! W ,.H ( O.+.< R f M ^ M s K ",
"G F U N ~ S O.O., S o.^ M 1 U U Q 3.p ^ S O.A 6 ^ ] [ S 6 ..F H U N S S O.+., S O.^ h 1 R E W 3.r ^ S O.A 6 ~ ] ] S 7 :."
};
