/* XPM */
static char *result[] = {
/* columns rows colors chars-per-pixel */
"60 60 230 2 ",
"   c #17080E",
".  c #0D0C13",
"X  c #120D14",
"o  c #1A0E13",
"O  c #0F121A",
"+  c #121215",
"@  c #1B1214",
"#  c #14151A",
"$  c #1A161C",
"%  c #16191D",
"&  c #1B191D",
"*  c #1F1916",
"=  c #250E0E",
"-  c #211613",
";  c #231B1C",
":  c #261818",
">  c #2D211E",
",  c #35251E",
"<  c #1C1B22",
"1  c #1E1E29",
"2  c #191821",
"3  c #231D23",
"4  c #211F29",
"5  c #1E232A",
"6  c #23232B",
"7  c #282429",
"8  c #332523",
"9  c #352927",
"0  c #292A32",
"q  c #332E34",
"w  c #2D323A",
"e  c #33333A",
"r  c #3C322A",
"t  c #49352E",
"y  c #57372A",
"u  c #443635",
"i  c #4B3734",
"p  c #4C3A34",
"a  c #463B3B",
"s  c #4B3B3A",
"d  c #443835",
"f  c #533633",
"g  c #523C33",
"h  c #5B3D33",
"j  c #533E3A",
"k  c #663D31",
"l  c #693A2E",
"z  c #53423C",
"x  c #5C433B",
"c  c #5D4137",
"v  c #4C403F",
"b  c #62453B",
"n  c #63493E",
"m  c #664437",
"M  c #744936",
"N  c #7A4B39",
"B  c #7D513E",
"V  c #77422D",
"C  c #3B3D43",
"Z  c #323A41",
"A  c #2E3841",
"S  c #463E41",
"D  c #3D4148",
"F  c #4C4344",
"G  c #47454A",
"H  c #534544",
"J  c #5C4641",
"K  c #5D4A44",
"L  c #544B4B",
"P  c #5C4D4B",
"I  c #544946",
"U  c #5C514E",
"Y  c #454C53",
"T  c #554E52",
"R  c #5C5353",
"E  c #565558",
"W  c #48575E",
"Q  c #634B44",
"!  c #6C4C42",
"~  c #634E49",
"^  c #654B45",
"/  c #724D43",
"(  c #7C4F42",
")  c #65524B",
"_  c #6A554D",
"`  c #695347",
"'  c #755346",
"]  c #7C5445",
"[  c #74554C",
"{  c #7B574A",
"}  c #7C594C",
"|  c #78584B",
" . c #625554",
".. c #6B5652",
"X. c #6D5A54",
"o. c #6D5E5B",
"O. c #675A59",
"+. c #735C54",
"@. c #7B5D53",
"#. c #745E59",
"$. c #765C56",
"%. c #6E615E",
"&. c #7C6156",
"*. c #72625D",
"=. c #7C635A",
"-. c #545D65",
";. c #5E6369",
":. c #686567",
">. c #756D6B",
",. c #786965",
"<. c #686D73",
"1. c #6B757B",
"2. c #7D7A7C",
"3. c #767375",
"4. c #767070",
"5. c #665E60",
"6. c #824E38",
"7. c #83523C",
"8. c #8A543A",
"9. c #835543",
"0. c #845946",
"q. c #8C5B45",
"w. c #845C4C",
"e. c #8C5D4C",
"r. c #865645",
"t. c #945C43",
"y. c #925D48",
"u. c #835E51",
"i. c #8B5F51",
"p. c #8B614D",
"a. c #87614D",
"s. c #94624B",
"d. c #9A654D",
"f. c #9A654C",
"g. c #846254",
"h. c #8B6453",
"j. c #84655A",
"k. c #86695D",
"l. c #8B6A5C",
"z. c #8C6758",
"x. c #926453",
"c. c #9A6552",
"v. c #966954",
"b. c #9C6B53",
"n. c #946B5B",
"m. c #9C6C5B",
"M. c #946658",
"N. c #9E715A",
"B. c #A26D56",
"V. c #A26E5A",
"C. c #A4725C",
"Z. c #AB735B",
"A. c #A77257",
"S. c #B1755D",
"D. c #836B62",
"F. c #8C6D63",
"G. c #846E69",
"H. c #926E62",
"J. c #9A6E60",
"K. c #88746C",
"L. c #957164",
"P. c #9C7263",
"I. c #9E7768",
"U. c #847C7D",
"Y. c #817875",
"T. c #9D7E72",
"R. c #A27462",
"E. c #AA7562",
"W. c #AB7A65",
"Q. c #A67A69",
"!. c #B47B66",
"~. c #A77E70",
"^. c #8F827B",
"/. c #7B7D81",
"(. c #887E81",
"). c #877E81",
"_. c #7E8990",
"`. c #8B8B8C",
"'. c #878688",
"]. c #948C8A",
"[. c #96928D",
"{. c #8A8D93",
"}. c #889399",
"|. c #949394",
" X c #94969A",
".X c #96999D",
"XX c #9B9B9D",
"oX c #999796",
"OX c #A39C9D",
"+X c #A39189",
"@X c #969CA1",
"#X c #9B9EA2",
"$X c #8E9FA6",
"%X c #9EA2A5",
"&X c #9EA4A9",
"*X c #94A6AB",
"=X c #9AABB1",
"-X c #A3A2A4",
";X c #A3A6AA",
":X c #A4A9AD",
">X c #ABACAC",
",X c #A6A8A6",
"<X c #A6ACB1",
"1X c #ABAEB2",
"2X c #ACB1B4",
"3X c #A9B4B7",
"4X c #B2B3B4",
"5X c #B3B6B9",
"6X c #B4BABD",
"7X c #BBBBBC",
"8X c #B4ADAE",
"9X c #A1A19F",
"0X c #C0B4B2",
"qX c #B9BCC1",
"wX c #C0BFC4",
"eX c #BEC3C6",
"rX c #C3C6C9",
"tX c #D5D6D8",
"yX c #D4D0CF",
"uX c #DFE3E6",
"iX c #E9EAEA",
"pX c #E4E6E6",
"aX c #F5F4F4",
"sX c #FAF6F4",
"dX c #F6FBFA",
"fX c #FAFDFD",
"gX c #FCFAF6",
"hX c #EFEFED",
"jX c #E1E0DD",
"kX c None",
/* pixels */
"kXkXkXkXkXkXkXkXkXkXkXkXkXkXkXkXkXkXkXkXkXkXkXkXkXkXkXkXkXkXkXkXkXkXkXkXkXkXkXkXkXkXkXkXkXkXkXkXkXkXkXkXkXkXkXkXkXkXkXkX",
"kXkXkXkXkXkXkXkXkXkXkXkXkXkXkXkXkXkXkXkXkXkXkXkXkXkXkXkXkXkXkXkXkXkXkXkXkXkXkXkXkXkXkXkXkXkXkXkXkXkXkXkXkXkXkXkXkXkXkXkX",
"kXkXkXkXkXkXkXkXkXkXkXkXkXkXkXkXkXkXkXkXkXkXkXkXkXkXkXkXkXkXkXkXkXkXkXkXkXkXkXkXkXkXkXkXkXkXkXkXkXkXkXkXkXkXkXkXkXkXkXkX",
"kXkXkXkXkXkXkXkXkXkXkXkXkXkXkXkXkXkXkXkXkXkXkXkXkXkXkXkXkXkXkXkXkXkXkXkXkXkXkXkXkXkXkXkXkXkXkXkXkXkXkXkXkXkXkXkXkXkXkXkX",
"kXkXkXkXkXkXkXkXkXkXkXkXkXkXkXkXkXkXkXkXkXkXkXkXkXkXkXkXkXkXkXkXkXkXkXkXkXkXkXkXkXkXkXkXkXkXkXkXkXkXkXkXkXkXkXkXkXkXkXkX",
"kXkXkXkXkXkXkXkXkXkXkXkXkXkXkXkXkXkXkXkXkXkXkXkXkXkXkXkXkXkXkXkXkXkXkXkXkXkXkXkXkXkXkXkXkXkXkXkXkXkXkXkXkXkXkXkXkXkXkXkX",
"kXkXkXkXkXkXkXkXkXkXkXkXkXkXkXkXkXkXkXkXkXkXkXkXkXkXkXkXkXkXkXkXkX1XkXkXkXkXkXkXkXkXkXkXkXkXkXkXkXkXkXkXkXkXkXkXkXkXkXkX",
"kXkXkXkXkXkXkXkXkXkXkXkXkXkXkXkXkXkXkXkXkXkXkXkXkXkXkXkXkX-X1X5X<X:X1X1X2XqXqXqX;X>X6XkXkXkXkXkXkXkXkXkXkXkXkXkXkXkXkXkX",
"kXkXkXfXsXaXaXaXsXsXsXkXkXkXkXkXkXkXkXkXkXkXkXkXkXkXkX;X@X;X1XqX=X&X@X@X&XqXrXrX-X-X4X4XkXkXkXkXkXkXkXkXkXkXkXkXkXkXkXkX",
"kXkXkXyXqXOXoXOX8XyXpXsXkXkXkXkXkXkXkXkXkXkXkXkXkXkX<X<X#X X{._./.;.;.;.<.).|.-X-X>X1X9X|.{..XkXkXkXkXkXkXkXkXkXkXkXkXkX",
"kXkXiX4X`.>.5.:.Y.OX0XyXjXhXgXgXfXfXkXkXkXkX=X_.}.#X%X X/./.;.-.W C G G T E :.).'.oX9XXX{.{.%X:XkXkXkXkXkXkXkXkXkXkXkXkX",
"kXkXpXXX3.R L L S O.G.+X0XyXkXgXgXaXhXkXkXkX=X_.@X;X X3.Y C C G C S G G S S S S ~ 4.].OXXX X6X6X<XkXkXkXkXkXkXkXkXkXkXkX",
"kXkXpXOX3.R P  .D.,.,.#.K.+XkXkXkXkXkX&XkX=X*X=X}.3.;.E Y C A e q 0 q S H H I P  .)  .>.].9X>X>X:X2X6XkXkXkXkXkXkXkXkXkX",
"kXkXpXXX3.R P O.G.G.D...$.G.^.kXkXkX9X.X3X=X*X_./.W G C Z w 0 6 4 4 3 u L H ~ X.+.~ z U 4.[.OX9X:X2X<XkXkXkXkXkXkXkXkXkX",
"kXkXpX|.>.L P ..G.F.F.D.u.@.[ K.kX[.[.9XqX3X$X-.D Y C q 4 1 3 2 3 3 8 S P j ~ #.=.=.=.) P  .'.9X,X-X.X'.5XkXkXkXkXkXkXkX",
"kXkXpX|.>.R ~ ..D.F.F.M.F.F.F.@.+.>.^.oX=X_./.W D w q 7 2 3 2 2 o : 8 S / S [ l.k.k.F.&.` P ) 4.,XXX{.{.<XyXhXdXkXkXkXkX",
"kXkXpX[.4.R ) X.D.H.H.M.H.J.J.[ ` %.Y.[.{.<.D D D 5 5 & % & & 3 o o 7 S / k u.L.F.H.L.j.+._ u U ].`.{.}.:XeXuXdXfXkXkXkX",
"kXkXpXoX4.) ~ | H.I.J.x.R.I.i.i.&.=.^.[.:.Y A A 5 % 5 % & < 3 < o o > f ^ f i.~.J.J.F.u.g.,.~ I U _..X&X&X=XtXiXfXkXkXkX",
"kXkXiXoX,.P Q | H.Q.E.M.Q.Q.M.i.a.&.,.%.T C A 0 5 5 2 % < 2 $ $ o : : f / k u.I.J.R.I.i.j.F.X.K v 2.XX%X@X:XrXpXfXkXkXkX",
"kXkXiXoX*.K n | J.~.Q.c.!.!.c.y.z.&.X.I S Z w 5 5 5 2 5 < # X o o = = f / k r.J.m.R.Q.w.g.F.$.P a 2. X*X%X&XeXuXdXkXkXkX",
"kXfXiX[.%.) ` { J.W.W.y.S.S.c.y.a.H.&.P L e 2 5 5 5 2 # < . . X o o = f ( l i.Q.V.V.M.9.i.T.$.J s :.'.=X:X<XqXuXfXkXkXkX",
"kXdXpX[.%.` ` } m.W.E.t.S.S.t.6.B l.=._ P q % 1 5 2 O 2 % O . X   o = f / l i.!.m.V.E.r.] @.[ ^ I R 3.:X:X<X6XuXfXfXkXkX",
"kXdXpX[.*._ ' w.B.!.S.t.S.S.6.V M a.=.&.H q 3 2 O O O O O O X +     = f / l y.!.B.S.!.e.M k [ $.o.S E &X&X:X3XtXfXdXkXkX",
"kXdXpX[.%.Q ^ ] M.!.!.d.S.S.t.( B B @.%.s q 3 < 2 # 2 # . . . #   = = S / l e.E.c.c.M.e.i.F.$.$.,.G D /.}.&X2XtXdXdXkXkX",
"fXfXpX].%.) n ' J.Q.E.y.y.c.y.r.0.' } X.v 9 > 5 2 # % O O . O + .   : f ! l e.J.y.q.y.0.h.L.} +.,.a G /.XX1X5XtXdXkXkXkX",
"fXfXpX].*._ n | L.J.i.N r.y.i.i.u.} &.X.v 9 & & % O O # O . + O   X : S ^ l r.m.B 7.0.] } j.' ' $.u G {.2XwXwXtXfXkXkXkX",
"fXfXjX'.%.) Q [ L.I.M.( y.c.i.i.u.@.@.X.s 8 * & % O O O . + . O .   3 i ^ k w.m.e.y.x.h.g.z.&.&.=.s F `.;X4X4XtXdXkXkXkX",
"fXkXkX).%.~ ^ +.J.R.m.r.M.m.i.r.{ } &.*.v 8 * * % # O O + X . + .   : s ^ k u.J.m.m.n.h.u.u.&.g.j.s L '.OX>X4XyXdXkXkXkX",
"fXkXkXU.%.P ^ @.L.~.J.i.m.m.e.( / [ @.=.v , * % % O # + + X + O X X 3 i ! ' z.W.R.C.N.p.} B a.g.=.z U '. X#X>XyXkXkXkXkX",
"kXkXkXY.%.P ^ &.L.~.J.i.m.J.e.( ( [ =.=.z 9 * * % O # + + + + + . + : a ~ n p.C.V.C.R.0.B a.a.z.l.z F 4.'.].XXrXkXkXkXkX",
"kXkXkX3.o.~ ` @.L.J.m.r.m.m.e.9.] @.j.,.z , * * * # # # + X + + . o 3 i Q m ] b.b.V.E.e.a.p.v.n.l.z v <.^.`.XX7XkXkXkXkX",
"kXkXkX>.o.~ Q [ J.M.M.r.c.m.x.i.i.i.F.#.z , > > & # # + + + X # X X : i n y M s.s.A.W.v.v.N.C.N.p.z v 1.'.oX9X5XkXkXkXkX",
"kXkXkX>.%.) Q ' l.x.e.6.x.V.m.M.n.z.F.=.z 8 * * * % % # + + + + + + * v x c M s.s.f.A.f.b.N.A.N.a.z z '.,X4X>X7XkXkXkXkX",
"kXkXkX>.%.) n ! j.i.9.N c.V.V.J.n.z.l.=.z , - > * % % # + + + + + + * d n y M 8.t.t.t.f.b.b.A.N.a.g L oX4X7X4XkXkXkXkXkX",
"kXkXkX>.%.~ n ! u.w.9.N M.E.V.m.n.n.j.&.z , - * * & % % + * + % # + * v x c M 8.8.6.6.t.f.b.A.A.a.g I .X4X7X>XkXkXkXkXkX",
"kXkXkX4.o.~ n / ] r.6.V c.E.E.m.n.z.j.&.g , - : & & % # + + + # + + & r z y M p.8.6.8.t.b.A.A.N.p.c  ..X>X4X>XkXkXkXkXkX",
"kXkXkXY.#.K n n r.r.q.l c.S.V.M.h.h.j.&.t , : : * % % # + + # # + + ; d x y M s.8.8.t.p.b.A.A.b.p.x R XX;X:X;XkXkXkXkXkX",
"kXkXkX4.o.) c / z.i.y.y.B.V.y.r.] a.j.=.t , > ; * % * % + # % % . . 3 d x k 0.v.8.f.A.f.f.B.A.A.0.f L .XXX.X.XkXkXkXkXkX",
"kXkXkX4.,.) n / J.J.M.c.V.V.y.9.B | &.&.g , ; ; & % & % + # % % + + ; e J m a.C.s.f.A.q.8.s.b.b.u.j T  X#X#X@XkXkXkXkXkX",
"kXkXkXkX#.) Q [ I.J.V.B.V.B.q.6.B ] @.| t 9 8 ; * % % % + * % & + + > r x c a.C.f.b.N.8.B 0.s.v.i.j T {.;X1X;XkXkXkXkXkX",
"kXkXkXkX*.~ c ' P.m.c.q.y.s.q.q.w.w.@...i 8 8 ; & & & # + # 2 < # # 3 u x m s.^.N.N.^.8.8.B p.p.u.j L /.<XqX1XkXkXkXkXkX",
"kXkXkXkX+.P h ' J.M.c.8.y.c.q.r.u.i.u...t , : ; & < < $ # $ 2 < 2 $ 3 u x y 0.R.v.v.N.p.0.a.a.a.[ s G 2.#XqX2XkXkXkXkXkX",
"kXkXkXkXX.x h / n.v.c.r.s.s.9.r.u.u.u.X.t > : ; < < < < & $ 2 3 2 & 3 i x g { N.a.p.p.p.h.z.a.&.^ s G 3.@X<X;XkXkXkXkXkX",
"kXkXkXkX*.P b ' L.P.m.s.V.B.9.] 9.@.$.[ u > 3 3 3 6 < 1 < < 2 < 2 2 3 d K c ] z.B ] } } &.&.&._ ` F E '.@X#X XkXkXkXkXkX",
"kXkXkXkXo.Q b ' L.R.C.b.E.V.7.] ] } $...i 8 ; 6 6 1 < < 4 3 2 2 2 2 3 i K c ' z.u.w.u.@.+.&.+.X.O.F E XX-X#X XkXkXkXkXkX",
"kXkXkXkX*.Q n ' n.R.C.m.E.V.N B { u.#.$.a 9 ; 7 6 1 1 1 4 < 2 2 < 3 3 a K b { n.z.l.D.u.&.+.+.*.o.F :.4X1X;XXXkXkXkXkXkX",
"kXkXkXkX*.K m ' M.N.m.c.V.m.7.0.i.j.=.+.i 9 ; 1 1 1 1 1 7 4 < 1 4 4 3 i K h / u.h.z.D.@.X. ...O.O.F :.4X4X1XkXkXkXkXkXkX",
"kXkXkXkX*.x c n h.n.v.e.C.V.r.i.l.j.D.X.s 7 3 4 6 1 2 1 6 1 3 4 4 4 3 u H f m / [ [ @.^ P H P P P F :.4X4X>XkXkXkXkXkXkX",
"kXkXkXkX*.x x n &.v.p.p.N.^.p.l.n.k.&._ d 9 6 ; 6 5 < 1 6 6 4 6 0 7 3 u H i f y h h h j i u S S S S :.>X-X9XkXkXkXkXkXkX",
"kXkXkXkXo.z x ' k.l.z.} A.^.n.l.l.=.%.K r ; * & & 5 < < < & & < 3 3 3 a H s j s j S H S S a S a S S :.>X,XkXkXkXkXkXkXkX",
"kXkXkXkXkXz K _ k.k.&.} f.n.g.&.=.=.X.kXkX- @ & < < % < % # $ $ $ 3 7 S R T R  . .O. . . . .R L ~ E 4.4XkXkXkXkXkXkXkXkX",
"kXkXkXkXkXz U +.D.&.+.` m m c kXkXkXkXkXkXkXkXkXkXkXkXkXkXkXkXkXkXkXkXkX3.Y.U.U.(.(.(.(.(.(.).).U.Y.`.kXkXkXkXkXkXkXkXkX",
"kXkXkXkXkXv d z x U n n kXkXkXkXkXkXkXkXkXkXkXkXkXkXkXkXkXkXkXkXkXkXkXkXkXkXkXkXkXkXkXkXkXkXkXkXkXkXkXkXkXkXkXkXkXkXkXkX",
"kXkXkXkXkXv r r t z kXkXkXkXkXkXkXkXkXkXkXkXkXkXkXkXkXkXkXkXkXkXkXkXkXkXkXkXkXkXkXkXkXkXkXkXkXkXkXkXkXkXkXkXkXkXkXkXkXkX",
"kXkXkXkXkXkXkXkXkXkXkXkXkXkXkXkXkXkXkXkXkXkXkXkXkXkXkXkXkXkXkXkXkXkXkXkXkXkXkXkXkXkXkXkXkXkXkXkXkXkXkXkXkXkXkXkXkXkXkXkX",
"kXkXkXkXkXkXkXkXkXkXkXkXkXkXkXkXkXkXkXkXkXkXkXkXkXkXkXkXkXkXkXkXkXkXkXkXkXkXkXkXkXkXkXkXkXkXkXkXkXkXkXkXkXkXkXkXkXkXkXkX",
"kXkXkXkXkXkXkXkXkXkXkXkXkXkXkXkXkXkXkXkXkXkXkXkXkXkXkXkXkXkXkXkXkXkXkXkXkXkXkXkXkXkXkXkXkXkXkXkXkXkXkXkXkXkXkXkXkXkXkXkX",
"kXkXkXkXkXkXkXkXkXkXkXkXkXkXkXkXkXkXkXkXkXkXkXkXkXkXkXkXkXkXkXkXkXkXkXkXkXkXkXkXkXkXkXkXkXkXkXkXkXkXkXkXkXkXkXkXkXkXkXkX",
"kXkXkXkXkXkXkXkXkXkXkXkXkXkXkXkXkXkXkXkXkXkXkXkXkXkXkXkXkXkXkXkXkXkXkXkXkXkXkXkXkXkXkXkXkXkXkXkXkXkXkXkXkXkXkXkXkXkXkXkX",
"kXkXkXkXkXkXkXkXkXkXkXkXkXkXkXkXkXkXkXkXkXkXkXkXkXkXkXkXkXkXkXkXkXkXkXkXkXkXkXkXkXkXkXkXkXkXkXkXkXkXkXkXkXkXkXkXkXkXkXkX"
};
