/* XPM */
static char *result[] = {
/* columns rows colors chars-per-pixel */
"60 60 198 2 ",
"   c #311D24",
".  c #3B1C25",
"X  c #112020",
"o  c #112121",
"O  c #122020",
"+  c #132020",
"@  c #142021",
"#  c #172425",
"$  c #1A2322",
"%  c #1C2026",
"&  c #1D2026",
"*  c #1A2524",
"=  c #1A2624",
"-  c #1E2328",
";  c #1C292B",
":  c #1F2C30",
">  c #222129",
",  c #25212A",
"<  c #26212A",
"1  c #26262F",
"2  c #28212C",
"3  c #2A212C",
"4  c #2C212E",
"5  c #2D212E",
"6  c #2D222F",
"7  c #2E222F",
"8  c #2F222F",
"9  c #252C2B",
"0  c #322B28",
"q  c #372928",
"w  c #372C29",
"e  c #372D2A",
"r  c #2C322D",
"t  c #202D30",
"y  c #252E32",
"u  c #243035",
"i  c #283339",
"p  c #29353B",
"a  c #29363C",
"s  c #333830",
"d  c #353930",
"f  c #3D3E36",
"g  c #33303C",
"h  c #4A1B28",
"j  c #6E172C",
"k  c #65182B",
"l  c #6B182C",
"z  c #6C182C",
"x  c #73172D",
"c  c #77182D",
"v  c #78182D",
"b  c #7E192C",
"n  c #731E30",
"m  c #6F2130",
"M  c #712333",
"N  c #762031",
"B  c #7A2435",
"V  c #7B2536",
"C  c #7C2637",
"Z  c #6C3F39",
"A  c #76393E",
"S  c #3C4139",
"D  c #3F443B",
"F  c #4E493F",
"G  c #5E4332",
"H  c #5B4C3E",
"J  c #6B4A35",
"K  c #71413B",
"L  c #70423A",
"P  c #73433B",
"I  c #77453C",
"U  c #2D3A40",
"Y  c #3D3545",
"T  c #3E3546",
"R  c #303D44",
"E  c #333E46",
"W  c #603A43",
"Q  c #773D40",
"!  c #38434E",
"~  c #3A4550",
"^  c #3B4651",
"/  c #3F4A55",
"(  c #3F4B56",
")  c #434940",
"_  c #464C42",
"`  c #5E5C4D",
"'  c #434F5B",
"]  c #47515B",
"[  c #45505C",
"{  c #45505D",
"}  c #46505D",
"|  c #47515F",
" . c #52535F",
".. c #764644",
"X. c #695D4B",
"o. c #77534B",
"O. c #785F4F",
"+. c #636252",
"@. c #676756",
"#. c #686757",
"$. c #67685A",
"%. c #696959",
"&. c #6A6A5A",
"*. c #7B6050",
"=. c #786052",
"-. c #796755",
";. c #7C6A56",
":. c #7F6B57",
">. c #4A5462",
",. c #4D5665",
"<. c #585864",
"1. c #535C6D",
"2. c #5B5A68",
"3. c #566072",
"4. c #5C6372",
"5. c #596274",
"6. c #5A6375",
"7. c #5D6679",
"8. c #7A6C62",
"9. c #60697C",
"0. c #6B697C",
"q. c #8E1B2C",
"w. c #A41E2B",
"e. c #AA1F2A",
"r. c #B4202A",
"t. c #82563A",
"y. c #804D47",
"u. c #845D4F",
"i. c #8D584C",
"p. c #905740",
"a. c #8C5353",
"s. c #896A51",
"d. c #836F58",
"f. c #956A55",
"g. c #89745A",
"h. c #8F795C",
"j. c #90795D",
"k. c #947B5D",
"l. c #957D5E",
"z. c #967E5F",
"x. c #BB7547",
"c. c #B36D5D",
"v. c #97796E",
"b. c #A26561",
"n. c #BF7462",
"m. c #E5797A",
"M. c #A7825B",
"N. c #998161",
"B. c #9D8361",
"V. c #9A8C70",
"C. c #A08662",
"Z. c #A38965",
"A. c #B7836B",
"S. c #B38F68",
"D. c #AD9572",
"F. c #B09873",
"G. c #B79E7A",
"H. c #C28C73",
"J. c #D38B7E",
"K. c #C4A17A",
"L. c #656E82",
"P. c #656E84",
"I. c #6A7289",
"U. c #6D758D",
"Y. c #78768C",
"T. c #747A8D",
"R. c #6F7790",
"E. c #717992",
"W. c #747C95",
"Q. c #7E86A1",
"!. c #AFA587",
"~. c #B8A482",
"^. c #BDA581",
"/. c #8890AC",
"(. c #8B93AF",
"). c #9095AC",
"_. c #F68181",
"`. c #E39686",
"'. c #C7B08B",
"]. c #C8B18C",
"[. c #C9B38D",
"{. c #CAB48E",
"}. c #CEB893",
"|. c #D0BB95",
" X c #D3BE98",
".X c #EEA392",
"XX c #D7C39C",
"oX c #D8C49D",
"OX c #DAC69F",
"+X c #DBC7A0",
"@X c #DDC9A2",
"#X c #DACAA8",
"$X c #DBCBA8",
"%X c #DDCDAA",
"&X c #E2CFA7",
"*X c #E2D0A8",
"=X c #E4D2AA",
"-X c None",
/* pixels */
"-X-X-X-X-X-X-X-X-X-X-X-X-X-X-X-X-X-X-X-X-X-X-X-X-X-X-X-X-X-X-X-X-X-X-X-X-X-X-X-X-X-X-X-X-X-X-X-X-X-X-X-X-X-X-X-X-X-X-X-X",
"-X-X-X-X-X-X-X-X-X-X-X-X-X-X-X-X-X-X-X-X-X-X-X-X-X-X-X-X-X-X-X-X-X-X-X-X-X-X-X-X-X-X-X-X-X-X-X-X-X-X-X-X-X-X-X-X-X-X-X-X",
"-X-X-X-X-X-X-X-X-X-X-X-X-X-X-X-X-X-X-X-X-X-X-X-X-X-X-X-X-X-X-X-X-X-X-X-X-X-X-X-X-X-X-X-X-X-X-X-X-X-X-X-X-X-X-X-X-X-X-X-X",
"-X-X-X-X-X-X-X-X-X-X-X-X-X-X-X-X-X-X-X-X-X-X-X-X-X-X-X-X-X-X-X-X-X-X-X-X-X-X-X-X-X-X-X-X-X-X-X-X-X-X-X-X-X-X-X-X-X-X-X-X",
"-X-X-X-X-X-X-X-X-X-X-X-X-X-X-X-X-X-X-X-X-X-X-X-X-X-X-X-X-X-X-X-X-X-X-X-X-X-X-X-X-X-X-X-X-X-X-X-X-X-X-X-X-X-X-X-X-X-X-X-X",
"-X-X-X-X-X-X-X-X-X-X-X-X-X-X-X-X-X-X-X-X-X-X-X-X-X-X-X-X-X-X-X-X-X-X-X-X-X-X-X-X-X-X-X-X-X-X-X-X-X-X-X-X-X-X-X-X-X-X-X-X",
"-X-X-X-X-X-X-X-X-X-X-X-X-X-X-X-X-X-X-X-X-X-X-X-X-X-X-XO O O O O O -X-X-X-X-X-X-X-X-X-X-X-X-X-X-X-X-X-X-X-X-X-X-X-X-X-X-X",
"-X-X-X-X-X-X-X-X-X-X-X-X-X-X-X-X-X-X-X-X-X-X-X-X-X-X9 r s d d s r 9 -X-X-X-X-X-X-X-X-X-X-X-X-X-X-X-X-X-X-X-X-X-X-X-X-X-X",
"-X-X-X-X-X-X-X-X-X-X-X-X-X-X-X-X-X-X-X-X-X-X-X-X-XO f -.z.C.C.z.-.f O -X-X-X-X-X-X-X-X-X-X-X-X-X-X-X-X-X-X-X-X-X-X-X-X-X",
"-X-X-X-X-X-X-X-X-X-X-X-X-X-X-X-X-X-X-X-X-X-X-X+ * F X.j.D.G.G.D.j.X.F * + -X-X-X-X-X-X-X-X-X-X-X-X-X-X-X-X-X-X-X-X-X-X-X",
"-X-X-X-X-X-X-X-X-X-X-X-X-X-X-X-X-X-X-X-X-X-X-X+ = -.g.C.^.'.'.^.C.g.-.= + -X-X-X-X-X-X-X-X-X-X-X-X-X-X-X-X-X-X-X-X-X-X-X",
"-X-X-X-X-X-X-X-X-X-X-X-X-X-X-X-X-X-X-X-X-X+ + k m B.h.;.N.Z.Z.N.;.h.B.m k + + -X-X-X-X-X-X-X-X-X-X-X-X-X-X-X-X-X-X-X-X-X",
"-X-X-X-X-X-X-X-X-X-X-X-X-X-X-X-X-X-X-X-X-X* = z N B.h.;.N.Z.Z.N.;.h.B.N z = * -X-X-X-X-X-X-X-X-X-X-X-X-X-X-X-X-X-X-X-X-X",
"-X-X-X-X-X-X-X-X-X-X-X-X-X-X-X-X-X-X-X-XO F -.n n -.g.C.^.'.'.^.C.g.-.n n -.F O -X-X-X-X-X-X-X-X-X-X-X-X-X-X-X-X-X-X-X-X",
"-X-X-X-X-X-X-X-X-X-X-X-X-X-X-X-X-X-X-X9 f X.g.Q A ..y.i.c.n.n.c.i.y...A Q g.X.f 9 -X-X-X-X-X-X-X-X-X-X-X-X-X-X-X-X-X-X-X",
"-X-X-X-X-X-X-X-X-X-X-X-X-X-X-X-X-X-XO r -.j.C.;.=.x x x w.r.r.w.x x x =.;.C.j.-.r O -X-X-X-X-X-X-X-X-X-X-X-X-X-X-X-X-X-X",
"-X-X-X-X-X-X-X-X-X-X-X-X-X-X-X-X-X-XO r -.:.d.l.k.o.u.f.A.H.H.A.f.u.o.k.l.d.:.-.r O -X-X-X-X-X-X-X-X-X-X-X-X-X-X-X-X-X-X",
"-X-X-X-X-X-X-X-X-X-X-X-X-X-X-X-X-X-XO r -.-.-.B.B.-.g.C.^.'.'.^.C.g.-.B.B.-.-.-.r O -X-X-X-X-X-X-X-X-X-X-X-X-X-X-X-X-X-X",
"-X-X-X-X-X-X-X-X-X-X-X-X-X-X-X-X-X-X-X-XO F -.-.;.C.F.'.'.'.'.'.'.F.C.;.-.-.F O -X-X-X-X-X-X-X-X-X-X-X-X-X-X-X-X-X-X-X-X",
"-X-X-X-X-X-X-X-X-X-X-X-X-X-X-X-X-X-X-X-X$ H s.O.*.M.S.K.K.K.K.K.K.S.M.*.O.s.H $ -X-X-X-X-X-X-X-X-X-X-X-X-X-X-X-X-X-X-X-X",
"-X-X-X-X-X-X-X-X-X-X-X-X-X-X-X-X-X-X-X-X0 t.x.I I x.x.x.x.x.x.x.x.x.x.I I x.t.0 -X-X-X-X-X-X-X-X-X-X-X-X-X-X-X-X-X-X-X-X",
"-X-X-X-X-X-X-X-X-X-X-X-X-X-X-X-X-X-X-X-X-XG J L P p.p.p.p.p.p.p.p.p.p.P L J G -X-X-X-X-X-X-X-X-X-X-X-X-X-X-X-X-X-X-X-X-X",
"-X-X-X-X-X-X-X-X-X-X-X-X-X-X-X-X-X-X-X-X-X0 0 Z K K K K K K K K K K K K Z 0 0 -X-X-X-X-X-X-X-X-X-X-X-X-X-X-X-X-X-X-X-X-X",
"-X-X-X-X-X-X-X-X-X-X-X-X-X-X-X-X-X-X-X-X-X-X-Xw e e e e e e e e e e e e w -X-X-X-X-X-X-X-X-X-X-X-X-X-X-X-X-X-X-X-X-X-X-X",
"-X-X-X-X-X-X-X-X-X-X-X-X-X-X-X-X-X-X-X-X-X-X-Xq q q q q q q q q q q q q q -X-X-X-X-X-X-X-X-X-X-X-X-X-X-X-X-X-X-X-X-X-X-X",
"-X-X-X-X-X-X-X-X-X-X-X-X-X-X-X-X-X-X-X-X-Xo O l x x x x x x x x x x x x l O o -X-X-X-X-X-X-X-X-X-X-X-X-X-X-X-X-X-X-X-X-X",
"-X-X-X-X-X-X-X-X-X-X-X-X-X-X-X-X-X-X-X-X-X  . j x x x x x x x x x x x x j .   -X-X-X-X-X-X-X-X-X-X-X-X-X-X-X-X-X-X-X-X-X",
"-X-X-X-X-X-X-X-X-X-X-X-X-X-X-X-X-X-X-X-XO h x x x x x x x x x x x x x x x x h O -X-X-X-X-X-X-X-X-X-X-X-X-X-X-X-X-X-X-X-X",
"-X-X-X-X-X-X-X-X-X-X-X-X-X-X-X-X-X-XX ) !.a.x x c w.w.w.w.w.w.w.w.w.w.c x x a.!.) X -X-X-X-X-X-X-X-X-X-X-X-X-X-X-X-X-X-X",
"-X-X-X-X-X-X-X-X-X-X-X-X-X-X-X-X-X-XO _ =Xb.x x v r.r.r.r.r.r.r.r.r.r.v x x b.=X_ O -X-X-X-X-X-X-X-X-X-X-X-X-X-X-X-X-X-X",
"-X-X-X-X-X-X-X-X-X-X-X-X-X-X-X-XX O =X=X=X&.O l v r.r.r.r.r.r.r.r.r.r.v l O &.=X_ O T Y -X-X-X-X-X-X-X-X-X-X-X-X-X-X-X-X",
"-X-X-X-X-X-X-X-X-X-X-X-X-X-X-X-XS D =X*X@X@.O l c w.e.r.r.r.r.r.r.e.w.c l O &.=X#.D g g -X-X-X-X-X-X-X-X-X-X-X-X-X-X-X-X",
"-X-X-X-X-X-X-X-X-X-X-X-X-X-X-XO V.'.=X@X'.` O l x x q.r.r.r.r.r.r.q.x x l O &.=X}.'.O X -X-X-X-X-X-X-X-X-X-X-X-X-X-X-X-X",
"-X-X-X-X-X-X-X-X-X-X-X-X-X-X-XO V.'. X|.'.` O l x x b q.q.q.q.q.q.b x x l O +. X{.'.O X -X-X-X-X-X-X-X-X-X-X-X-X-X-X-X-X",
"-X-X-X-X-X-X-X-X-X-X-X-X-X-X-XO V.'.'.'.'.` O l x x x x x x x x x x x x l O ` '.'.'.O X -X-X-X-X-X-X-X-X-X-X-X-X-X-X-X-X",
"-X-X-X-X-X-X-X-X-X-X-X-X-X-X-XO 4.T.).).).] O l x x x x x x x x x x x x l O %.&X&X&XO X -X-X-X-X-X-X-X-X-X-X-X-X-X-X-X-X",
"-X-X-X-X-X-X-X-X-X-X-X-X-X-X-XO 3.U./././.' O M B B V C C C C C C V B B M O $.%X$X#XO X -X-X-X-X-X-X-X-X-X-X-X-X-X-X-X-X",
"-X-X-X-X-X-X-X-X-X-X-X-X-X-X-XO 3.U.U.U.U.! O ~.'.'. X=X=X=X=X=X=X X'.'.~.O [ (.W.U.O X -X-X-X-X-X-X-X-X-X-X-X-X-X-X-X-X",
"-X-X-X-X-X-X-X-X-X-X-X-X-X-X-Xo / | U.U.U.! O ~.]. XOX=X=X=X=X=X=XOX X].~.O ( Q.E.U.O X -X-X-X-X-X-X-X-X-X-X-X-X-X-X-X-X",
"-X-X-X-X-X-X-X-X-X-X-X-X-X-X-X-XX O U.U.U.! O ~.[.=X=X=X=X=X=X=X=X=X=X[.~.O ! U.U.U.O X -X-X-X-X-X-X-X-X-X-X-X-X-X-X-X-X",
"-X-X-X-X-X-X-X-X-X-X-X-X-X-X-X-X-X-Xp p p ; O ~.].}.XX=X=X=X=X=X=XXX}.].~.O ! U.~ p -X-X-X-X-X-X-X-X-X-X-X-X-X-X-X-X-X-X",
"-X-X-X-X-X-X-X-X-X-X-X-X-X-X-X-X-X-XO O O O O ~.'.'. X=X=X=X=X=X=X X'.'.~.O ! U.p O -X-X-X-X-X-X-X-X-X-X-X-X-X-X-X-X-X-X",
"-X-X-X-X-X-X-X-X-X-X-X-X-X-X-X-X-X-X-X-X-Xo O ~.[.=XoX'.'.'.'.'.'.oX=X[.~.O O O -X-X-X-X-X-X-X-X-X-X-X-X-X-X-X-X-X-X-X-X",
"-X-X-X-X-X-X-X-X-X-X-X-X-X-X-X-X-X-X-X-X-Xo O ~.[.=X+X}.}.}.}.}.}.+X=X[.~.O O X -X-X-X-X-X-X-X-X-X-X-X-X-X-X-X-X-X-X-X-X",
"-X-X-X-X-X-X-X-X-X-X-X-X-X-X-X-X-X-X-X-X-Xo O ~.[.=X=X=X=X=X=X=X=X=X=X[.~.O o -X-X-X-X-X-X-X-X-X-X-X-X-X-X-X-X-X-X-X-X-X",
"-X-X-X-X-X-X-X-X-X-X-X-X-X-X-X-X-X-X-X-X-X> > J.`..X.X.Xv.8.8.v..X.X.X`.J.> > -X-X-X-X-X-X-X-X-X-X-X-X-X-X-X-X-X-X-X-X-X",
"-X-X-X-X-X-X-X-X-X-X-X-X-X-X-X-X-X-X-X-X-X8 7 m._._._._.W 7 7 W _._._._.m.7 8 -X-X-X-X-X-X-X-X-X-X-X-X-X-X-X-X-X-X-X-X-X",
"-X-X-X-X-X-X-X-X-X-X-X-X-X-X-X-X-X-X-X-X6 & @  .2.Y.0.<.y @ @ y <.0.Y.2. .@ & 6 -X-X-X-X-X-X-X-X-X-X-X-X-X-X-X-X-X-X-X-X",
"-X-X-X-X-X-X-X-X-X-X-X-X-X-X-X-X-X-X-X-X5 % O { ,.I.7.>.t O O t >.7.I.,.} # - 3 -X-X-X-X-X-X-X-X-X-X-X-X-X-X-X-X-X-X-X-X",
"-X-X-X-X-X-X-X-X-X-X-X-X-X-X-X-X-X-X5 5 5 % O { >.>.>.>.t O O t >.>.>.>.>.>.E O , 5 -X-X-X-X-X-X-X-X-X-X-X-X-X-X-X-X-X-X",
"-X-X-X-X-X-X-X-X-X-X-X-X-X-X-X-X-X-X5 5 5 % O 1.6.L.9.5.u O O u 5.9.L.6.5.5.^ O , 5 -X-X-X-X-X-X-X-X-X-X-X-X-X-X-X-X-X-X",
"-X-X-X-X-X-X-X-X-X-X-X-X-X-X-X-X-X-X5 5 5 % O P.R.(.Q.U.p O O p U.Q.(.R.U.U.| O , 5 -X-X-X-X-X-X-X-X-X-X-X-X-X-X-X-X-X-X",
"-X-X-X-X-X-X-X-X-X-X-X-X-X-X-X-X-X-X5 5 5 2 , i a R U p 1 , , 1 p U R a p p : O , 5 -X-X-X-X-X-X-X-X-X-X-X-X-X-X-X-X-X-X",
"-X-X-X-X-X-X-X-X-X-X-X-X-X-X-X-X-X-X5 5 5 5 5 @ O O O O , 5 5 , O O O O O O O O < 5 -X-X-X-X-X-X-X-X-X-X-X-X-X-X-X-X-X-X",
"-X-X-X-X-X-X-X-X-X-X-X-X-X-X-X-X-X-X-X-X5 5 5 5 5 5 5 5 5 5 5 5 5 5 5 5 5 5 5 5 -X-X-X-X-X-X-X-X-X-X-X-X-X-X-X-X-X-X-X-X",
"-X-X-X-X-X-X-X-X-X-X-X-X-X-X-X-X-X-X-X-X4 5 5 5 5 5 5 5 5 5 5 5 5 5 5 5 5 5 5 5 -X-X-X-X-X-X-X-X-X-X-X-X-X-X-X-X-X-X-X-X",
"-X-X-X-X-X-X-X-X-X-X-X-X-X-X-X-X-X-X-X-X-X-X5 5 5 5 5 5 5 5 5 5 5 5 5 5 5 5 -X-X-X-X-X-X-X-X-X-X-X-X-X-X-X-X-X-X-X-X-X-X",
"-X-X-X-X-X-X-X-X-X-X-X-X-X-X-X-X-X-X-X-X-X-X-X-X-X-X-X-X-X-X-X-X-X-X-X-X-X-X-X-X-X-X-X-X-X-X-X-X-X-X-X-X-X-X-X-X-X-X-X-X",
"-X-X-X-X-X-X-X-X-X-X-X-X-X-X-X-X-X-X-X-X-X-X-X-X-X-X-X-X-X-X-X-X-X-X-X-X-X-X-X-X-X-X-X-X-X-X-X-X-X-X-X-X-X-X-X-X-X-X-X-X",
"-X-X-X-X-X-X-X-X-X-X-X-X-X-X-X-X-X-X-X-X-X-X-X-X-X-X-X-X-X-X-X-X-X-X-X-X-X-X-X-X-X-X-X-X-X-X-X-X-X-X-X-X-X-X-X-X-X-X-X-X"
};
