/* XPM */
static char *result[] = {
/* columns rows colors chars-per-pixel */
"60 60 179 2 ",
"   c #391D25",
".  c #122020",
"X  c #1A2224",
"o  c #1A2729",
"O  c #1E2B2E",
"+  c #24212A",
"@  c #2D212E",
"#  c #242D2B",
"$  c #35242D",
"%  c #332B28",
"&  c #3B2E2C",
"*  c #2C322D",
"=  c #3A322A",
"-  c #202C30",
";  c #332530",
":  c #29353B",
">  c #263237",
",  c #353930",
"<  c #3D3E36",
"1  c #5B192A",
"2  c #6B182C",
"3  c #73172D",
"4  c #73182D",
"5  c #78182D",
"6  c #4E232C",
"7  c #51202B",
"8  c #5C2C3C",
"9  c #622E3F",
"0  c #7B2535",
"q  c #742B37",
"w  c #78343B",
"e  c #3F443B",
"r  c #4E493F",
"t  c #40453B",
"y  c #684834",
"u  c #72423B",
"i  c #7A493E",
"p  c #3F3546",
"a  c #303D43",
"s  c #793448",
"d  c #38434E",
"f  c #3C4751",
"g  c #554B43",
"h  c #5F5548",
"j  c #404853",
"k  c #46515E",
"l  c #454B48",
"z  c #7C4942",
"x  c #675B4A",
"c  c #77534B",
"v  c #775D4E",
"b  c #5F6153",
"n  c #7C614F",
"m  c #6C6957",
"M  c #746550",
"N  c #796755",
"B  c #7C6A56",
"V  c #756E58",
"C  c #7B745E",
"Z  c #4A5462",
"A  c #4F5968",
"S  c #545B69",
"D  c #605F6E",
"F  c #576072",
"G  c #596374",
"H  c #5E677A",
"J  c #64696F",
"K  c #8F1B2C",
"L  c #83192C",
"P  c #991C2B",
"I  c #AA1F2B",
"U  c #812737",
"Y  c #82333E",
"T  c #B4202A",
"R  c #B2282F",
"E  c #A12D35",
"W  c #B52B31",
"Q  c #B82F34",
"!  c #834E3E",
"~  c #9E4639",
"^  c #865B3B",
"/  c #A8553E",
"(  c #95613E",
")  c #84374A",
"_  c #853D43",
"`  c #9C3C49",
"'  c #953040",
"]  c #844A46",
"[  c #924943",
"{  c #88594D",
"}  c #9B5E42",
"|  c #985644",
" . c #8A555F",
".. c #855E50",
"X. c #965754",
"o. c #AB5659",
"O. c #BF555E",
"+. c #B75858",
"@. c #A85B4B",
"#. c #9B664A",
"$. c #836F58",
"%. c #876852",
"&. c #956B56",
"*. c #89745B",
"=. c #8F785C",
"-. c #927B5E",
";. c #9F7F5B",
":. c #AC6543",
">. c #BB7547",
",. c #B06A50",
"<. c #807963",
"1. c #957865",
"2. c #A36E62",
"3. c #B67F66",
"4. c #AD7772",
"5. c #A57773",
"6. c #CA7855",
"7. c #D16863",
"8. c #DA7667",
"9. c #EC7B7B",
"0. c #E27678",
"q. c #87826B",
"w. c #9D8361",
"e. c #99846A",
"r. c #8C8870",
"t. c #9A8C70",
"y. c #A08663",
"u. c #A98B64",
"i. c #AA906C",
"p. c #B28A73",
"a. c #BD8D71",
"s. c #B29A76",
"d. c #B39479",
"f. c #B49978",
"g. c #B5856A",
"h. c #CA8956",
"j. c #CE9057",
"k. c #D3985C",
"l. c #C78977",
"z. c #C99770",
"x. c #DBA463",
"c. c #656E83",
"v. c #6C748C",
"b. c #78768C",
"n. c #747A8D",
"m. c #6F7790",
"M. c #747C95",
"N. c #78809A",
"B. c #80859A",
"V. c #9E9C99",
"C. c #AFA587",
"Z. c #B8A480",
"A. c #8A92AE",
"S. c #9095AC",
"D. c #F68181",
"F. c #F28F85",
"G. c #E29585",
"H. c #EB9E8B",
"J. c #F99489",
"K. c #C0AA86",
"L. c #C4AD89",
"P. c #D3AD8C",
"I. c #D3A885",
"U. c #C7B08B",
"Y. c #C9B38D",
"T. c #CEB893",
"R. c #CCB690",
"E. c #D1BC96",
"W. c #D3BE98",
"Q. c #FAA48D",
"!. c #F7A38A",
"~. c #EEA392",
"^. c #FCA790",
"/. c #D8C49D",
"(. c #D4C099",
"). c #DECCA4",
"_. c #E2CFA7",
"`. c #E4D2AA",
"'. c None",
/* pixels */
"'.'.'.'.'.'.'.'.'.'.'.'.'.'.'.'.'.'.'.'.'.'.'.'.'.'.'.'.'.'.'.'.'.'.'.'.'.'.'.'.'.'.'.'.'.'.'.'.'.'.'.'.'.'.'.'.'.'.'.'.",
"'.'.'.'.'.'.'.'.'.'.'.'.'.'.'.'.'.'.'.'.'.'.'.'.'.'.'.'.'.'.'.'.'.'.'.'.'.'.'.'.'.'.'.'.'.'.'.'.'.'.'.'.'.'.'.'.'.'.'.'.",
"'.'.'.'.'.'.'.'.'.'.'.'.'.'.'.'.'.'.'.'.'.'.'.'.'.'.'.'.'.'.'.'.'.'.'.'.'.'.'.'.'.'.'.'.'.'.'.'.'.'.'.'.'.'.'.'.'.'.'.'.",
"'.'.'.'.'.'.'.'.'.'.'.'.'.'.'.'.'.'.'.'.'.'.'.'.'.'.'.'.'.'.'.'.'.'.'.'.'.'.'.'.'.'.'.'.'.'.'.'.'.'.'.'.'.'.'.'.'.'.'.'.",
"'.'.'.'.'.'.'.'.'.'.'.'.'.'.'.'.'.'.'.'.'.'.'.'.'.'.'.'.'.'.'.'.'.'.'.'.'.'.'.'.'.'.'.'.'.'.'.'.'.'.'.'.'.'.'.'.'.'.'.'.",
"'.'.'.'.'.'.'.'.'.'.'.'.'.'.'.'.'.'.'.'.'.'.'.'.'.'.'.'.'.'.'.'.'.'.'.'.'.'.'.'.'.'.'.'.'.'.'.'.'.'.'.'.'.'.'.'.'.'.'.'.",
"'.'.'.'.'.'.'.'.'.'.'.'.'.'.'.'.'.'.'.'.'.'.'.'.'.'.'.. . . . . . '.'.'.'.'.'.'.'.'.'.'.'.'.'.'.'.'.'.'.'.'.'.'.'.'.'.'.",
"'.'.'.'.'.'.'.'.'.'.'.'.'.'.'.'.'.'.'.'.'.'.'.'.'.'.'.# * , , * # '.'.'.'.'.'.'.'.'.'.'.'.'.'.'.'.'.'.'.'.'.'.'.'.'.'.'.",
"'.'.'.'.'.'.'.'.'.'.'.'.'.'.'.'.'.'.'.'.'.'.'.'.'.'.. r B w.w.N r . '.'.'.'.'.'.'.'.'.'.'.'.'.'.'.'.'.'.'.'.'.'.'.'.'.'.",
"'.'.'.'.'.'.'.'.'.'.'.'.'.'.'.'.'.'.'.'.'.'.'.'.. * r M -.s.s.=.M r # . '.'.'.'.'.'.'.'.'.'.'.'.'.'.'.'.'.'.'.'.'.'.'.'.",
"'.'.'.'.'.'.'.'.'.'.'.'.'.'.'.'.'.'.'.'.'.'.'.'.. * B -.y.L.L.y.-.N * X '.'.'.'.'.'.'.'.'.'.'.'.'.'.'.'.'.'.'.'.'.'.'.'.",
"'.'.'.'.'.'.'.'.'.'.'.'.'.'.'.'.'.'.'.'.'.'.. . 2 s Z.t.B y.y.B *.w.q 2 . . '.'.'.'.'.'.'.'.'.'.'.'.'.'.'.'.'.'.'.'.'.'.",
"'.'.'.'.'.'.'.'.'.'.'.'.'.'.'.'.'.'.'.'.'.'.O o 3 _ L.e.B y.y.B *.w.w 3 X o '.'.'.'.'.'.'.'.'.'.'.'.'.'.'.'.'.'.'.'.'.'.",
"'.'.'.'.'.'.'.'.'.'.'.'.'.'.'.'.'.'.'.'.'.. b M 3 0 N -.y.L.L.y.=.N q 3 B h . '.'.'.'.'.'.'.'.'.'.'.'.'.'.'.'.'.'.'.'.'.",
"'.'.'.'.'.'.'.'.'.'.'.'.'.'.'.'.'.'.'.'.* 6 x N 3 0 [ | @.2.2.{ %.N ] ] B x < * '.'.'.'.'.'.'.'.'.'.'.'.'.'.'.'.'.'.'.'.",
"'.'.'.'.'.'.'.'.'.'.'.'.'.'.'.'.'.'.'.. < N N N 3 L T T T 5 3 3 w N -.y.M B N < . '.'.'.'.'.'.'.'.'.'.'.'.'.'.'.'.'.'.'.",
"'.'.'.'.'.'.'.'.'.'.'.'.'.'.'.'.'.'.'.. < N =.-.c ..,.3.l.&.&.c %.-.*.$.B M N < . '.'.'.'.'.'.'.'.'.'.'.'.'.'.'.'.'.'.'.",
"'.'.'.'.'.'.'.'.'.'.'.'.'.'.'.'.'.'.'.. < N -.y.B $.y.f.U.t.w.N *.y.$.B N N N < . '.'.'.'.'.'.'.'.'.'.'.'.'.'.'.'.'.'.'.",
"'.'.'.'.'.'.'.'.'.'.'.'.'.'.'.'.'.'.'.'.'.. h V y.i.U.U.U.U.L.y.=.n N N . . . '.'.'.'.'.'.'.'.'.'.'.'.'.'.'.'.'.'.'.'.'.",
"'.'.'.'.'.'.'.'.'.'.'.'.'.'.'.'.'.'.'.'.'.. g x g.a.I.P.P.d.d.u.w.%.n M = = X '.'.'.'.'.'.'.'.'.'.'.'.'.'.'.'.'.'.'.'.'.",
"'.'.'.'.'.'.'.'.'.'.'.'.'.'.'.'.'.'.'.'.'.'.@ @ D.D.D.J.^.! i x.j.>.i w >.( % '.'.'.'.'.'.'.'.'.'.'.'.'.'.'.'.'.'.'.'.'.",
"'.'.'.'.'.'.'.'.'.'.'.'.'.'.'.'.'.'.'.'.'.'.@ @  . . .l.^.i i #.#.| #.( y y '.'.'.'.'.'.'.'.'.'.'.'.'.'.'.'.'.'.'.'.'.'.",
"'.'.'.'.'.'.'.'.'.'.'.'.'.'.'.'.'.'.'.'.'.'.@ @ p p p 4.Q.i u u u u :.>.% % '.'.'.'.'.'.'.'.'.'.'.'.'.'.'.'.'.'.'.'.'.'.",
"'.'.'.'.'.'.'.'.'.'.'.'.'.'.'.'.'.'.'.'.'.'.@ ; H.H.H.F.D.9.0.s 8 ; & = '.'.'.'.'.'.'.'.'.'.'.'.'.'.'.'.'.'.'.'.'.'.'.'.",
"'.'.'.'.'.'.'.'.'.'.'.'.'.'.'.'.'.'.'.'.'.'.@ ; Q.Q.^.J.D.9.9.) s + $ $ '.'.'.'.'.'.'.'.'.'.'.'.'.'.'.'.'.'.'.'.'.'.'.'.",
"'.'.'.'.'.'.'.'.'.'.'.'.'.'.'.'.'.'.'.'.'.'.@ @ >.6.l.9.D.) ) D.O.3 2 3 . . '.'.'.'.'.'.'.'.'.'.'.'.'.'.'.'.'.'.'.'.'.'.",
"'.'.'.'.'.'.'.'.'.'.'.'.'.'.'.'.'.'.'.'.'.'.'.@ :.>.8.7.7.o.O.O.` 3 3 3     '.'.'.'.'.'.'.'.'.'.'.'.'.'.'.'.'.'.'.'.'.'.",
"'.'.'.'.'.'.'.'.'.'.'.'.'.'.'.'.'.'.'.'.'.'.'.'.~ / 6./ E 9.0.3 3 3 3 3 4 1 . '.'.'.'.'.'.'.'.'.'.'.'.'.'.'.'.'.'.'.'.'.",
"'.'.'.'.'.'.'.'.'.'.'.'.'.'.'.'.'.'.'.'.'.'.'.'.h.h.>.z.T.` ' I K 3 2.p.p.d.C.b . '.'.'.'.'.'.'.'.'.'.'.'.'.'.'.'.'.'.'.",
"'.'.'.'.'.'.'.'.'.'.'.'.'.'.'.'.'.'.'.'.'.'.'.'.x.x.>.z.`.U 5 T P 3 p.Y.U.T.`.m . '.'.'.'.'.'.'.'.'.'.'.'.'.'.'.'.'.'.'.",
"'.'.'.'.'.'.'.'.'.'.'.'.'.'.'.'.'.'.'.'.'.'.'.'.>.( . x w.R T T P 4 p.U.`.`.`.m . '.'.'.'.'.'.'.'.'.'.'.'.'.'.'.'.'.'.'.",
"'.'.'.'.'.'.'.'.'.'.'.'.'.'.'.'.'.'.'.'.'.'.'.'.>.^ . m f.W T T E _ 1.t.`.`.`.q.e '.'.'.'.'.'.'.'.'.'.'.'.'.'.'.'.'.'.'.",
"'.'.'.'.'.'.'.'.'.'.'.'.'.'.'.'.'.'.'.'.'.'.'.'.'.'.. r.`.Q W T +.Y.t . `.`.`.W.U.# . '.'.'.'.'.'.'.'.'.'.'.'.'.'.'.'.'.",
"'.'.'.'.'.'.'.'.'.'.'.'.'.'.'.'.'.'.'.'.'.'.'.'.'.'.. V f.R T K @.Y.t . W.W.W.R.L.# . '.'.'.'.'.'.'.'.'.'.'.'.'.'.'.'.'.",
"'.'.'.'.'.'.'.'.'.'.'.'.'.'.'.'.'.'.'.'.'.'.'.'.'.'.. x y.R I 3 X.L.t . Y.Y.U.U.L.# . '.'.'.'.'.'.'.'.'.'.'.'.'.'.'.'.'.",
"'.'.'.'.'.'.'.'.'.'.'.'.'.'.'.'.'.'.'.'.'.'.'.'.'.'.. q._.U 5 3 7 # f k S H S.B.n.o . '.'.'.'.'.'.'.'.'.'.'.'.'.'.'.'.'.",
"'.'.'.'.'.'.'.'.'.'.'.'.'.'.'.'.'.'.'.'.'.'.'.'.'.'.. r.`.Y 0 0 6 . f Z Z G A.M.v.o . '.'.'.'.'.'.'.'.'.'.'.'.'.'.'.'.'.",
"'.'.'.'.'.'.'.'.'.'.'.'.'.'.'.'.'.'.'.'.'.'.'.'.'.'.. r.`.Y.U.U.C . f Z Z S v.v.m.o . '.'.'.'.'.'.'.'.'.'.'.'.'.'.'.'.'.",
"'.'.'.'.'.'.'.'.'.'.'.'.'.'.'.'.'.'.'.'.'.'.'.'.'.'.. r.`.(.W.U.C . k G G H v.F k o . '.'.'.'.'.'.'.'.'.'.'.'.'.'.'.'.'.",
"'.'.'.'.'.'.'.'.'.'.'.'.'.'.'.'.'.'.'.'.'.'.'.'.'.'.. r.`.`._.U.C . F v.v.v.v.f . '.'.'.'.'.'.'.'.'.'.'.'.'.'.'.'.'.'.'.",
"'.'.'.'.'.'.'.'.'.'.'.'.'.'.'.'.'.'.'.'.'.'.'.'.'.'.. r.`.`.`.U.f.t.l : : : : > '.'.'.'.'.'.'.'.'.'.'.'.'.'.'.'.'.'.'.'.",
"'.'.'.'.'.'.'.'.'.'.'.'.'.'.'.'.'.'.'.'.'.'.'.'.'.'.. r.`.`._.L.Y.U.e . . . . '.'.'.'.'.'.'.'.'.'.'.'.'.'.'.'.'.'.'.'.'.",
"'.'.'.'.'.'.'.'.'.'.'.'.'.'.'.'.'.'.'.'.'.'.'.'.'.'.. C U.U.Y.`./.Y.U.U.. . '.'.'.'.'.'.'.'.'.'.'.'.'.'.'.'.'.'.'.'.'.'.",
"'.'.'.'.'.'.'.'.'.'.'.'.'.'.'.'.'.'.'.'.'.'.'.'.'.'.. <.T.T.E.`./.Y.U.L.. . '.'.'.'.'.'.'.'.'.'.'.'.'.'.'.'.'.'.'.'.'.'.",
"'.'.'.'.'.'.'.'.'.'.'.'.'.'.'.'.'.'.'.'.'.'.'.'.'.'.. r.`.`.`.`./.U.U.U.. . '.'.'.'.'.'.'.'.'.'.'.'.'.'.'.'.'.'.'.'.'.'.",
"'.'.'.'.'.'.'.'.'.'.'.'.'.'.'.'.'.'.'.'.'.'.'.'.. . . J V.5.4.~.H.G.G.G.+ + '.'.'.'.'.'.'.'.'.'.'.'.'.'.'.'.'.'.'.'.'.'.",
"'.'.'.'.'.'.'.'.'.'.'.'.'.'.'.'.'.'.'.'.'.'.@ @ . . . k m.s ) D.D.D.D.D.@ @ @ '.'.'.'.'.'.'.'.'.'.'.'.'.'.'.'.'.'.'.'.'.",
"'.'.'.'.'.'.'.'.'.'.'.'.'.'.'.'.'.'.'.'.'.@ @ @ . O k Z Z o O b.b.b.S S . X @ @ @ '.'.'.'.'.'.'.'.'.'.'.'.'.'.'.'.'.'.'.",
"'.'.'.'.'.'.'.'.'.'.'.'.'.'.'.'.'.'.'.'.'.@ @ @ . - k Z A X o v.v.v.S Z . X @ @ @ '.'.'.'.'.'.'.'.'.'.'.'.'.'.'.'.'.'.'.",
"'.'.'.'.'.'.'.'.'.'.'.'.'.'.'.'.'.'.'.@ @ @ @ @ @ + . F A.O X Z Z Z Z Z . X @ @ @ @ @ '.'.'.'.'.'.'.'.'.'.'.'.'.'.'.'.'.",
"'.'.'.'.'.'.'.'.'.'.'.'.'.'.'.'.'.'.'.@ @ @ @ @ @ @ X j G f f c.c.c.G G . . @ @ @ @ @ '.'.'.'.'.'.'.'.'.'.'.'.'.'.'.'.'.",
"'.'.'.'.'.'.'.'.'.'.'.'.'.'.'.'.'.'.'.@ @ @ @ @ @ @ @ X . c.m.A.A.A.M.v.. X @ @ @ @ @ '.'.'.'.'.'.'.'.'.'.'.'.'.'.'.'.'.",
"'.'.'.'.'.'.'.'.'.'.'.'.'.'.'.'.'.'.'.@ @ @ @ @ @ @ @ X . > : a a a : > + + @ @ @ @ @ '.'.'.'.'.'.'.'.'.'.'.'.'.'.'.'.'.",
"'.'.'.'.'.'.'.'.'.'.'.'.'.'.'.'.'.'.'.@ @ @ @ @ @ @ @ X . . . . . . X . @ @ @ @ @ @ @ '.'.'.'.'.'.'.'.'.'.'.'.'.'.'.'.'.",
"'.'.'.'.'.'.'.'.'.'.'.'.'.'.'.'.'.'.'.'.'.@ @ @ @ @ @ @ @ @ @ @ @ @ @ @ @ @ @ @ @ '.'.'.'.'.'.'.'.'.'.'.'.'.'.'.'.'.'.'.",
"'.'.'.'.'.'.'.'.'.'.'.'.'.'.'.'.'.'.'.'.'.@ @ @ @ @ @ @ @ @ @ @ @ @ @ @ @ @ @ @ @ '.'.'.'.'.'.'.'.'.'.'.'.'.'.'.'.'.'.'.",
"'.'.'.'.'.'.'.'.'.'.'.'.'.'.'.'.'.'.'.'.'.'.@ @ @ @ @ @ @ @ @ @ @ @ @ @ @ @ @ '.'.'.'.'.'.'.'.'.'.'.'.'.'.'.'.'.'.'.'.'.",
"'.'.'.'.'.'.'.'.'.'.'.'.'.'.'.'.'.'.'.'.'.'.'.'.'.'.'.'.'.'.'.'.'.'.'.'.'.'.'.'.'.'.'.'.'.'.'.'.'.'.'.'.'.'.'.'.'.'.'.'.",
"'.'.'.'.'.'.'.'.'.'.'.'.'.'.'.'.'.'.'.'.'.'.'.'.'.'.'.'.'.'.'.'.'.'.'.'.'.'.'.'.'.'.'.'.'.'.'.'.'.'.'.'.'.'.'.'.'.'.'.'.",
"'.'.'.'.'.'.'.'.'.'.'.'.'.'.'.'.'.'.'.'.'.'.'.'.'.'.'.'.'.'.'.'.'.'.'.'.'.'.'.'.'.'.'.'.'.'.'.'.'.'.'.'.'.'.'.'.'.'.'.'."
};
