/* XPM */
static char *result[] = {
/* columns rows colors chars-per-pixel */
"60 60 173 2 ",
"   c #1A1F21",
".  c #2A1E23",
"X  c #3B1C25",
"o  c #122020",
"O  c #1B2226",
"+  c #192729",
"@  c #1D2927",
"#  c #242129",
"$  c #2D212E",
"%  c #232D2A",
"&  c #202127",
"*  c #332B29",
"=  c #36252B",
"-  c #2C322D",
";  c #202D30",
":  c #342331",
">  c #283439",
",  c #3C3D35",
"<  c #3A3034",
"1  c #5B192A",
"2  c #69182C",
"3  c #73172D",
"4  c #731A2E",
"5  c #78182D",
"6  c #741E30",
"7  c #7B1E32",
"8  c #433835",
"9  c #762133",
"0  c #7C2435",
"q  c #6C3F39",
"w  c #743B3E",
"e  c #4D433B",
"r  c #4E4A3E",
"t  c #51453D",
"y  c #71413B",
"u  c #7A493E",
"i  c #3E3546",
"p  c #323E45",
"a  c #4E3E4C",
"s  c #7B3743",
"d  c #17584B",
"f  c #39444E",
"g  c #3D4953",
"h  c #3F614B",
"j  c #296052",
"k  c #4C4048",
"l  c #554949",
"z  c #5F5548",
"x  c #5E5D4D",
"c  c #585344",
"v  c #444F5C",
"b  c #46515E",
"n  c #585457",
"m  c #6F4940",
"M  c #625945",
"N  c #675B4C",
"B  c #605457",
"V  c #7A5144",
"C  c #4D6759",
"Z  c #656454",
"A  c #6A6A5A",
"S  c #6A6754",
"D  c #726252",
"F  c #796655",
"G  c #7D6B55",
"H  c #7B745E",
"J  c #75674F",
"K  c #4B5563",
"L  c #545D6E",
"P  c #5C7160",
"I  c #5A6375",
"U  c #5A6477",
"Y  c #656967",
"T  c #8E1B2C",
"R  c #921F28",
"E  c #A41E2B",
"W  c #8B2027",
"Q  c #852E33",
"!  c #973335",
"~  c #A3262F",
"^  c #B4202A",
"/  c #B2282F",
"(  c #A62932",
")  c #B62C32",
"_  c #AF3938",
"`  c #A73D3D",
"'  c #8C3041",
"]  c #874546",
"[  c #865D4F",
"{  c #92514C",
"}  c #AA4350",
"|  c #AE525E",
" . c #BC4845",
".. c #836F58",
"X. c #8A745A",
"o. c #8E785C",
"O. c #937C5E",
"+. c #90704A",
"@. c #AF6E45",
"#. c #BB7547",
"$. c #BE794A",
"%. c #B47347",
"&. c #AF7B52",
"*. c #B07C52",
"=. c #B56D45",
"-. c #807963",
";. c #8C7962",
":. c #917B61",
">. c #A67468",
",. c #AD7771",
"<. c #C04C4A",
"1. c #C0794D",
"2. c #D5666C",
"3. c #E57D79",
"4. c #AF825A",
"5. c #9C8362",
"6. c #988369",
"7. c #8C8870",
"8. c #8C8770",
"9. c #9A8C70",
"0. c #998773",
"q. c #A08662",
"w. c #A5896B",
"e. c #B58676",
"r. c #AB9676",
"t. c #B09873",
"y. c #B59D79",
"u. c #BA9B7E",
"i. c #C4814F",
"p. c #CB8757",
"a. c #CE9057",
"s. c #C88161",
"d. c #D78A66",
"f. c #D98C68",
"g. c #CC9C63",
"h. c #D98D7B",
"j. c #D5967F",
"k. c #E19271",
"l. c #E8977E",
"z. c #DBA364",
"x. c #656E83",
"c. c #6D758D",
"v. c #70798F",
"b. c #6F7790",
"n. c #7A819B",
"m. c #9E9C99",
"M. c #8A8880",
"N. c #BDA581",
"B. c #B6A685",
"V. c #8A92AE",
"C. c #868EA9",
"Z. c #AEABAA",
"A. c #DB9781",
"S. c #F68181",
"D. c #F9978A",
"F. c #EB9C88",
"G. c #C7B08B",
"H. c #CEB893",
"J. c #D3BE98",
"K. c #C1AA85",
"L. c #EFA98F",
"P. c #FCA790",
"I. c #F7A38A",
"U. c #D3C39F",
"Y. c #D8C49D",
"T. c #DDC9A2",
"R. c #CEC7BD",
"E. c #E2CFA7",
"W. c #E4D2AA",
"Q. c #C5D6D2",
"!. c #FEE9E3",
"~. c white",
"^. c None",
/* pixels */
"^.^.^.^.^.^.^.^.^.^.^.^.^.^.^.^.^.^.^.^.^.^.^.^.^.^.^.^.^.^.^.^.^.^.^.^.^.^.^.^.^.^.^.^.^.^.^.^.^.^.^.^.^.^.^.^.^.^.^.^.",
"^.^.^.^.^.^.^.^.^.^.^.^.^.^.^.^.^.^.^.^.^.^.^.^.^.^.^.^.^.^.^.^.^.^.^.^.^.^.^.^.^.^.^.^.^.^.^.^.^.^.^.^.^.^.^.^.^.^.^.^.",
"^.^.^.^.^.^.^.^.^.^.^.^.^.^.^.^.^.^.^.^.^.^.^.^.^.^.^.^.^.^.^.^.^.^.^.^.^.^.^.^.^.^.^.^.^.^.^.^.^.^.^.^.^.^.^.^.^.^.^.^.",
"^.^.^.^.^.^.^.^.^.^.^.^.^.^.^.^.^.^.^.^.^.^.^.^.^.^.^.^.^.^.^.^.^.^.^.^.^.^.^.^.^.^.^.^.^.^.^.^.^.^.^.^.^.^.^.^.^.^.^.^.",
"^.^.^.^.^.^.^.^.^.^.^.^.^.^.^.^.^.^.^.^.^.^.^.^.^.^.^.^.^.^.^.^.^.^.^.^.^.^.^.^.^.^.^.^.^.^.^.^.^.^.^.^.^.^.^.^.^.^.^.^.",
"^.^.^.^.^.^.^.^.^.^.^.^.^.^.^.^.^.^.^.^.^.^.^.^.^.^.^.^.^.^.^.^.^.^.^.^.^.^.^.^.^.^.^.^.^.^.^.^.^.^.^.^.^.^.^.^.^.^.^.^.",
"^.^.^.^.^.^.^.^.^.^.^.^.^.^.^.^.^.^.^.^.^.^.^.^.^.^.^.^.^.^.^.^.^.^.^.^.^.^.^.^.^.^.^.^.^.^.^.^.^.^.^.^.^.^.^.^.^.^.^.^.",
"^.^.^.^.^.^.^.^.^.^.^.^.^.^.^.^.^.^.^.^.^.^.^.^.^.^.^.^.^.^.^.^.^.^.^.^.^.^.^.^.^.^.^.^.^.^.^.^.^.^.^.^.^.^.^.^.^.^.^.^.",
"^.^.^.^.^.^.^.^.^.^.^.^.^.^.^.^.^.^.^.^.^.^.^.^.^.^.^.^.^.^.^.^.^.^.^.^.^.^.^.^.^.^.^.^.^.^.^.^.^.^.^.^.^.^.^.^.^.^.^.^.",
"^.^.^.^.^.^.^.^.^.^.^.^.^.^.^.^.^.^.^.^.^.^.^.^.^.^.^.^.o o o o o ^.^.^.^.^.^.^.^.^.^.^.^.^.^.^.^.^.^.^.^.^.^.^.^.^.^.^.",
"^.^.^.^.^.^.^.^.^.^.^.^.^.^.^.^.^.^.^.^.^.^.^.^.^.^.^.o l M G J z , o ^.^.^.^.^.^.^.^.^.^.^.^.^.^.^.^.^.^.^.^.^.^.^.^.^.",
"^.^.^.^.^.^.^.^.^.^.^.^.^.^.^.^.^.^.^.^.^.^.^.^.^.^.^.o c F q.O.F , o ^.^.^.^.^.^.^.^.^.^.^.^.^.^.^.^.^.^.^.^.^.^.^.^.^.",
"^.^.^.^.^.^.^.^.^.^.^.^.^.^.^.^.^.^.^.^.^.^.^.^.^.o 8 F 5.4.B.N.5.X.G + o ^.^.^.^.^.^.^.^.^.^.^.^.^.^.^.^.^.^.^.^.^.^.^.",
"^.^.^.^.^.^.^.^.^.^.^.^.^.^.^.^.^.^.^.^.^.^.^.^.^.. e ..o.O.N.y.O.o.;.= # ^.^.^.^.^.^.^.^.^.^.^.^.^.^.^.^.^.^.^.^.^.^.^.",
"^.^.^.^.^.^.^.^.^.^.^.^.^.^.^.^.^.^.^.^.^.^.^.o   3 ] q...G q.5.F r.G.9 3 o o ^.^.^.^.^.^.^.^.^.^.^.^.^.^.^.^.^.^.^.^.^.",
"^.^.^.^.^.^.^.^.^.^.^.^.^.^.^.^.^.^.^.^.^.^.o e t 3 m X.o.o.y.r.O.6.6.9 4 r , o ^.^.^.^.^.^.^.^.^.^.^.^.^.^.^.^.^.^.^.^.",
"^.^.^.^.^.^.^.^.^.^.^.^.^.^.^.^.^.^.^.^.^.o o D D 3 w F 5.5.G.y.q.X.F 4 6 F r   ^.^.^.^.^.^.^.^.^.^.^.^.^.^.^.^.^.^.^.^.",
"^.^.^.^.^.^.^.^.^.^.^.^.^.^.^.^.^.^.^.^.o M 5.J D 3 2 9 ~ / ) ( 9 6 6 u.u.F F S - o ^.^.^.^.^.^.^.^.^.^.^.^.^.^.^.^.^.^.",
"^.^.^.^.^.^.^.^.^.^.^.^.^.^.^.^.^.^.^.^.o M 5.H F 6 6 9 ( ) ) ( 6 6 7 N.N.F F F - o ^.^.^.^.^.^.^.^.^.^.^.^.^.^.^.^.^.^.",
"^.^.^.^.^.^.^.^.^.^.^.^.^.^.^.^.^.^.^.^.o r J 5.>.F X.4.y.G.5.5.F O.5.5.5.G F F - o ^.^.^.^.^.^.^.^.^.^.^.^.^.^.^.^.^.^.",
"^.^.^.^.^.^.^.^.^.^.^.^.^.^.^.^.^.^.^.^.o c F o.o.X.5.t.K.G.t.r.X.o.;.o.X.F N r % o ^.^.^.^.^.^.^.^.^.^.^.^.^.^.^.^.^.^.",
"^.^.^.^.^.^.^.^.^.^.^.^.^.^.^.^.^.^.^.^.^.G F F G 5.r.G.G.G.G.y.5.X.F G F F c o ^.^.^.^.^.^.^.^.^.^.^.^.^.^.^.^.^.^.^.^.",
"^.^.^.^.^.^.^.^.^.^.^.^.^.^.^.^.^.^.^.^.^.8 8 y V g.4.[ j.L.B n l ,.A.l k < < ^.^.^.^.^.^.^.^.^.^.^.^.^.^.^.^.^.^.^.^.^.",
"^.^.^.^.^.^.^.^.^.^.^.^.^.^.^.^.^.^.^.^.^.* * y u z.&.y h.P.i a i ,.P.k i : $ ^.^.^.^.^.^.^.^.^.^.^.^.^.^.^.^.^.^.^.^.^.",
"^.^.^.^.^.^.^.^.^.^.^.^.^.^.^.^.^.^.^.^.^.^.^.* * y q y h.P.~.Q.d 6.I.j d $ $ ^.^.^.^.^.^.^.^.^.^.^.^.^.^.^.^.^.^.^.^.^.",
"^.^.^.^.^.^.^.^.^.^.^.^.^.^.^.^.^.^.^.^.^.^.^.* * y ] { A.P.!.R.C w.l.P C $ : ^.^.^.^.^.^.^.^.^.^.^.^.^.^.^.^.^.^.^.^.^.",
"^.^.^.^.^.^.^.^.^.^.^.^.^.^.^.^.^.^.^.^.^.^.^.$ : s | S.D.P.P.l.#.#.#.I.F.: $ ^.^.^.^.^.^.^.^.^.^.^.^.^.^.^.^.^.^.^.^.^.",
"^.^.^.^.^.^.^.^.^.^.^.^.^.^.^.^.^.^.^.^.^.^.^.O # 0 ' } 3.D.d.f.k.k.k.d.s.$ $ ^.^.^.^.^.^.^.^.^.^.^.^.^.^.^.^.^.^.^.^.^.",
"^.^.^.^.^.^.^.^.^.^.^.^.^.^.^.^.^.^.^.^.^.^.^.o   3 3 3 2.S.%.p.P.P.P.1.@.$ $ ^.^.^.^.^.^.^.^.^.^.^.^.^.^.^.^.^.^.^.^.^.",
"^.^.^.^.^.^.^.^.^.^.^.^.^.^.^.^.^.^.^.^.^.o o 2 2 3 3 3 7 T $.1.z.p.1.#.#.^.^.^.^.^.^.^.^.^.^.^.^.^.^.^.^.^.^.^.^.^.^.^.",
"^.^.^.^.^.^.^.^.^.^.^.^.^.^.^.^.^.^.^.^.^.o o 9 0 0 6 3 5 5 =.$.z.p.$.#.#.^.^.^.^.^.^.^.^.^.^.^.^.^.^.^.^.^.^.^.^.^.^.^.",
"^.^.^.^.^.^.^.^.^.^.^.^.^.^.^.^.^.^.^.^.^.o o T.E.G.>.4 E ^ 4 Q #.a.z.1.#.^.^.^.^.^.^.^.^.^.^.^.^.^.^.^.^.^.^.^.^.^.^.^.",
"^.^.^.^.^.^.^.^.^.^.^.^.^.^.^.^.^.^.^.^.^.o o U.E.J.>.4 E ^ T ! &.+.+.%.#.^.^.^.^.^.^.^.^.^.^.^.^.^.^.^.^.^.^.^.^.^.^.^.",
"^.^.^.^.^.^.^.^.^.^.^.^.^.^.^.^.^.^.^.^.^.o o T.W.W.e.4 E ^ ^ _ 5.r o ^.^.^.^.^.^.^.^.^.^.^.^.^.^.^.^.^.^.^.^.^.^.^.^.^.",
"^.^.^.^.^.^.^.^.^.^.^.^.^.^.^.^.^.^.^.^.o S 9.T.W.W.0.. R ^ ^ <.J.Z o ^.^.^.^.^.^.^.^.^.^.^.^.^.^.^.^.^.^.^.^.^.^.^.^.^.",
"^.^.^.^.^.^.^.^.^.^.^.^.^.^.^.^.^.^.^.^.o H G.E.W.W.8.o R ^ ^ <.W.A o ^.^.^.^.^.^.^.^.^.^.^.^.^.^.^.^.^.^.^.^.^.^.^.^.^.",
"^.^.^.^.^.^.^.^.^.^.^.^.^.^.^.^.^.^.^.^.+ H G.G.G.G.H o 1 6 ^ _ 5.r o ^.^.^.^.^.^.^.^.^.^.^.^.^.^.^.^.^.^.^.^.^.^.^.^.^.",
"^.^.^.^.^.^.^.^.^.^.^.^.^.^.^.^.^.^.^.^.o H H.H.H.H.H o 1 3 E ` t.c o ^.^.^.^.^.^.^.^.^.^.^.^.^.^.^.^.^.^.^.^.^.^.^.^.^.",
"^.^.^.^.^.^.^.^.^.^.^.^.^.^.^.^.^.^.^.^.o 7.W.W.W.W.8.o 1 3 3 ] W.A o ^.^.^.^.^.^.^.^.^.^.^.^.^.^.^.^.^.^.^.^.^.^.^.^.^.",
"^.^.^.^.^.^.^.^.^.^.^.^.^.^.^.^.^.^.^.^.o Y m.Z.Z.M.Y p : X >.e.W.A o ^.^.^.^.^.^.^.^.^.^.^.^.^.^.^.^.^.^.^.^.^.^.^.^.^.",
"^.^.^.^.^.^.^.^.^.^.^.^.^.^.^.^.^.^.^.^.o b c.C.n.K K K ; o G.H.W.A o ^.^.^.^.^.^.^.^.^.^.^.^.^.^.^.^.^.^.^.^.^.^.^.^.^.",
"^.^.^.^.^.^.^.^.^.^.^.^.^.^.^.^.^.^.^.^.o b c.v.b.K K K ; o T.W.W.A o ^.^.^.^.^.^.^.^.^.^.^.^.^.^.^.^.^.^.^.^.^.^.^.^.^.",
"^.^.^.^.^.^.^.^.^.^.^.^.^.^.^.^.^.^.^.^.o b x.c.c.K K K > @ W.W.W.A o ^.^.^.^.^.^.^.^.^.^.^.^.^.^.^.^.^.^.^.^.^.^.^.^.^.",
"^.^.^.^.^.^.^.^.^.^.^.^.^.^.^.^.^.^.^.^.^.o o x.c.b.K o 9.G.W.T.W.A o ^.^.^.^.^.^.^.^.^.^.^.^.^.^.^.^.^.^.^.^.^.^.^.^.^.",
"^.^.^.^.^.^.^.^.^.^.^.^.^.^.^.^.^.^.^.^.^.^.o b K b b x B.J.T.T.Y.Z o ^.^.^.^.^.^.^.^.^.^.^.^.^.^.^.^.^.^.^.^.^.^.^.^.^.",
"^.^.^.^.^.^.^.^.^.^.^.^.^.^.^.^.^.^.^.^.^.^.^.o o o x G.T.W.G.G.G.x o ^.^.^.^.^.^.^.^.^.^.^.^.^.^.^.^.^.^.^.^.^.^.^.^.^.",
"^.^.^.^.^.^.^.^.^.^.^.^.^.^.^.^.^.^.^.^.^.^.$ o @ 9.y.G.T.W.T.T.T.Z o $ $ $ ^.^.^.^.^.^.^.^.^.^.^.^.^.^.^.^.^.^.^.^.^.^.",
"^.^.^.^.^.^.^.^.^.^.^.^.^.^.^.^.^.^.^.^.^.^.$ o @ G.G.G.T.W.W.T.W.A o $ $ $ ^.^.^.^.^.^.^.^.^.^.^.^.^.^.^.^.^.^.^.^.^.^.",
"^.^.^.^.^.^.^.^.^.^.^.^.^.^.^.^.^.^.^.^.$ $ $ o o K U c.c.c.o ; K > o $ $ $ $ $ ^.^.^.^.^.^.^.^.^.^.^.^.^.^.^.^.^.^.^.^.",
"^.^.^.^.^.^.^.^.^.^.^.^.^.^.^.^.^.^.^.^.$ $ $ o + b L x.x.x.o > I g > # # $ $ $ ^.^.^.^.^.^.^.^.^.^.^.^.^.^.^.^.^.^.^.^.",
"^.^.^.^.^.^.^.^.^.^.^.^.^.^.^.^.^.^.$ $ $ $ $   + K K K K K o p V.n.c.+ o $ $ $ $ $ ^.^.^.^.^.^.^.^.^.^.^.^.^.^.^.^.^.^.",
"^.^.^.^.^.^.^.^.^.^.^.^.^.^.^.^.^.^.$ $ $ $ $ o o x.x.b.b.b.v v b g f o o $ $ $ $ $ ^.^.^.^.^.^.^.^.^.^.^.^.^.^.^.^.^.^.",
"^.^.^.^.^.^.^.^.^.^.^.^.^.^.^.^.^.^.$ $ $ $ $   + b.b.V.V.V.c.U o o o o o $ $ $ $ $ ^.^.^.^.^.^.^.^.^.^.^.^.^.^.^.^.^.^.",
"^.^.^.^.^.^.^.^.^.^.^.^.^.^.^.^.^.^.$ $ $ $ $ o + K x.b.b.b.K g o O $ $ $ $ $ $ $ $ ^.^.^.^.^.^.^.^.^.^.^.^.^.^.^.^.^.^.",
"^.^.^.^.^.^.^.^.^.^.^.^.^.^.^.^.^.^.$ $ $ $ $     b L x.x.x.b f o & $ $ $ $ $ $ $ $ ^.^.^.^.^.^.^.^.^.^.^.^.^.^.^.^.^.^.",
"^.^.^.^.^.^.^.^.^.^.^.^.^.^.^.^.^.^.^.^.$ $ $ $ $ o o o o o o   $ $ $ $ $ $ $ $ ^.^.^.^.^.^.^.^.^.^.^.^.^.^.^.^.^.^.^.^.",
"^.^.^.^.^.^.^.^.^.^.^.^.^.^.^.^.^.^.^.^.^.$ $ $ $ O       +   # $ $ $ $ $ $ $ ^.^.^.^.^.^.^.^.^.^.^.^.^.^.^.^.^.^.^.^.^.",
"^.^.^.^.^.^.^.^.^.^.^.^.^.^.^.^.^.^.^.^.^.^.$ $ $ $ $ : $ : $ $ $ $ $ $ $ $ ^.^.^.^.^.^.^.^.^.^.^.^.^.^.^.^.^.^.^.^.^.^.",
"^.^.^.^.^.^.^.^.^.^.^.^.^.^.^.^.^.^.^.^.^.^.^.^.^.^.^.^.^.^.^.^.^.^.^.^.^.^.^.^.^.^.^.^.^.^.^.^.^.^.^.^.^.^.^.^.^.^.^.^.",
"^.^.^.^.^.^.^.^.^.^.^.^.^.^.^.^.^.^.^.^.^.^.^.^.^.^.^.^.^.^.^.^.^.^.^.^.^.^.^.^.^.^.^.^.^.^.^.^.^.^.^.^.^.^.^.^.^.^.^.^."
};
