/* XPM */
static char *result[] = {
/* columns rows colors chars-per-pixel */
"60 60 177 2 ",
"   c #2B1E23",
".  c #3A1E29",
"X  c #122020",
"o  c #1B2424",
"O  c #192729",
"+  c #222129",
"@  c #2D212E",
"#  c #232D2A",
"$  c #2A272A",
"%  c #352726",
"&  c #2B312D",
"*  c #202D30",
"=  c #2A353B",
"-  c #253237",
";  c #3D3E36",
":  c #343833",
">  c #33342F",
",  c #4A1B28",
"<  c #411C26",
"1  c #5B192A",
"2  c #651B2B",
"3  c #73172D",
"4  c #76192D",
"5  c #741F31",
"6  c #503735",
"7  c #782837",
"8  c #7D323A",
"9  c #75383E",
"0  c #3F443C",
"q  c #4D4A3E",
"w  c #474539",
"e  c #3E3546",
"r  c #313B44",
"t  c #2D3940",
"y  c #7A3045",
"u  c #165A4C",
"i  c #38434E",
"p  c #37424C",
"a  c #20514A",
"s  c #3C4751",
"d  c #3C4853",
"f  c #4C4E43",
"g  c #464C42",
"h  c #5F5548",
"j  c #5E5D4D",
"k  c #424D59",
"l  c #46515D",
"z  c #565B58",
"x  c #6A4040",
"c  c #784644",
"v  c #675B4B",
"b  c #775748",
"n  c #6E604F",
"m  c #696A59",
"M  c #746353",
"N  c #796755",
"B  c #7C6A56",
"V  c #7D6A5C",
"C  c #7B745E",
"Z  c #4A5462",
"A  c #535C6D",
"S  c #565F70",
"D  c #596374",
"F  c #5E677B",
"G  c #5B6477",
"H  c #696B6C",
"J  c #707375",
"K  c #83192C",
"L  c #8F1B2C",
"P  c #991C2B",
"I  c #A21E2B",
"U  c #AF1F2A",
"Y  c #852E33",
"T  c #8F3C3E",
"R  c #B4202A",
"E  c #9E4539",
"W  c #B9523B",
"Q  c #95613E",
"!  c #883E44",
"~  c #863A43",
"^  c #8C564D",
"/  c #904A48",
"(  c #A65B48",
")  c #BA5C52",
"_  c #AC4B41",
"`  c #956D4F",
"'  c #836F58",
"]  c #816855",
"[  c #936B56",
"{  c #8B735A",
"}  c #86715A",
"|  c #937C5E",
" . c #9C7D5E",
".. c #83644B",
"X. c #AF6141",
"o. c #BB7547",
"O. c #BE7949",
"+. c #B66A59",
"@. c #A27E5D",
"#. c #BA6E45",
"$. c #887B69",
"%. c #AC7369",
"&. c #C0794D",
"*. c #DA7473",
"=. c #D0696E",
"-. c #E77E72",
";. c #9C8361",
":. c #91876D",
">. c #9B8C70",
",. c #998B74",
"<. c #8C8870",
"1. c #A08662",
"2. c #A58D69",
"3. c #A38965",
"4. c #B0826E",
"5. c #AA906C",
"6. c #A18874",
"7. c #B48273",
"8. c #AE9371",
"9. c #B79E7A",
"0. c #B39774",
"q. c #B9A17D",
"w. c #CC825A",
"e. c #CE9057",
"r. c #D69D5F",
"t. c #D78B66",
"y. c #D68979",
"u. c #D18E70",
"i. c #E8967B",
"p. c #DAA465",
"a. c #DCAB6E",
"s. c #E9A576",
"d. c #656E84",
"f. c #6D758C",
"g. c #7B7E81",
"h. c #727A93",
"j. c #7A819B",
"k. c #70928D",
"l. c #7F87A1",
"z. c #8A8C94",
"x. c #84868C",
"c. c #BD9680",
"v. c #BBA581",
"b. c #BDB298",
"n. c #838BA5",
"m. c #868EA9",
"M. c #8A92AE",
"N. c #A3ADAF",
"B. c #F68181",
"V. c #F78A85",
"C. c #EC9E8A",
"Z. c #C3A483",
"A. c #C5AD89",
"S. c #DBAB8C",
"D. c #C7B08B",
"F. c #CAB48E",
"G. c #D0B28F",
"H. c #CEB893",
"J. c #C6B698",
"K. c #D3BE98",
"L. c #D0BC95",
"P. c #EAA18A",
"I. c #FCA790",
"U. c #F7A38A",
"Y. c #C7BDA5",
"T. c #F7B7A6",
"R. c #D4C39F",
"E. c #D8C49D",
"W. c #E0C39F",
"Q. c #DDCBA3",
"!. c #CEC2AB",
"~. c #E2CEA6",
"^. c #E4D2AA",
"/. c #CFCCD1",
"(. c #C5D6D2",
"). c white",
"_. c None",
/* pixels */
"_._._._._._._._._._._._._._._._._._._._._._._._._._._._._._._._._._._._._._._._._._._._._._._._._._._._._._._._._._._._.",
"_._._._._._._._._._._._._._._._._._._._._._._._._._._._._._._._._._._._._._._._._._._._._._._._._._._._._._._._._._._._.",
"_._._._._._._._._._._._._._._._._._._._._._._._._._._._._._._._._._._._._._._._._._._._._._._._._._._._._._._._._._._._.",
"_._._._._._._._._._._._._._._._._._._._._._._._._._._._._._._._._._._._._._._._._._._._._._._._._._._._._._._._._._._._.",
"_._._._._._._._._._._._._._._._._._._._._._._._._._._._._._._._._._._._._._._._._._._._._._._._._._._._._._._._._._._._.",
"_._._._._._._._._._._._._._._._._._._._._._._._._._._._._._._._._._._._._._._._._._._._._._._._._._._._._._._._._._._._.",
"_._._._._._._._._._._._._._._._._._._._._._._._._._._._._._._._._._._._._._._._._._._._._._._._._._._._._._._._._._._._.",
"_._._._._._._._._._._._._._._._._._._._._._._._._._._.X X X X X X X _._._._._._._._._._._._._._._._._._._._._._._._._._.",
"_._._._._._._._._._._._._._._._._._._._._._._._._._._.> ; q q q w : # _._._._._._._._._._._._._._._._._._._._._._._._._.",
"_._._._._._._._._._._._._._._._._._._._._._._._._._.X q N ;.1.;.| N & X _._._._._._._._._._._._._._._._._._._._._._._._.",
"_._._._._._._._._._._._._._._._._._._._._._._._.X & h B ;.q.q.Z.8.;.n h X X _._._._._._._._._._._._._._._._._._._._._._.",
"_._._._._._._._._._._._._._._._._._._._._._._._.X & N | ;.A.F.F.q.;.' N X X _._._._._._._._._._._._._._._._._._._._._._.",
"_._._._._._._._._._._._._._._._._._._._._._.X X 3 8 ;.} N 1.;.1.| N | ;.3 1 X _._._._._._._._._._._._._._._._._._._._._.",
"_._._._._._._._._._._._._._._._._._._._._._.& & 3 9 ;.} B 2.5.5.;.' [ [ 3 2 & # _._._._._._._._._._._._._._._._._._._._.",
"_._._._._._._._._._._._._._._._._._._._._.X h N 3 7 N | 1.A.F.F.9.;.8 2 3 7 N ; X _._._._._._._._._._._._._._._._._._._.",
"_._._._._._._._._._._._._._._._._._._.X : q n N 3 5 y E _ ) ) ^ ^ / c c ^ ^ N v q o X _._._._._._._._._._._._._._._._._.",
"_._._._._._._._._._._._._._._._._._._.X 6 M N M 2 4 3 P R U U 5 3 3 b N 1.| N N N o X _._._._._._._._._._._._._._._._._.",
"_._._._._._._._._._._._._._._._._._._.X ; N ;.;.M ]  .0.a.c.v. .[ M | ;.V V N N N o X _._._._._._._._._._._._._._._._._.",
"_._._._._._._._._._._._._._._._._._._.X ; n | ;.B } 3.q.D.D.A.3.| V | ;.N N N M n O X _._._._._._._._._._._._._._._._._.",
"_._._._._._._._._._._._._._._._._._._._._.X h N 1.5.D.D.D.D.D.D.9.3.' V N N N ; X _._._._._._._._._._._._._._._._._._._.",
"_._._._._._._._._._._._._._._._._._._._._.o b ` M $.$.c.S.S.S.$.} N %.%.` N q > # _._._._._._._._._._._._._._._._._._._.",
"_._._._._._._._._._._._._._._._._._._._._.% ` O.e e e %.I.I.C.e e e c.I.o.Q X # % _._._._._._._._._._._._._._._._._._._.",
"_._._._._._._._._._._._._._._._._._._._._._.6 6 /.N.a 6.I.I.C.a k./.T.I.-.+.@ @ _._._._._._._._._._._._._._._._._._._._.",
"_._._._._._._._._._._._._._._._._._._._._._.@ @ ).(.u ,.I.I.P.u k.).T.I.-.=.@ _._._._._._._._._._._._._._._._._._._._._.",
"_._._._._._._._._._._._._._._._._._._._._._.@ @ B.B.I.t.o.o.&.I.I.I.V.B.@ @ _._._._._._._._._._._._._._._._._._._._._._.",
"_._._._._._._._._._._._._._._._._._._._._._.@ + =.*.i.t.w.w.w.i.V.y.*.=.< . _._._._._._._._._._._._._._._._._._._._._._.",
"_._._._._._._._._._._._._._._._._._._._._._.X X 3 Y &.i.I.I.U.&.( y y y 5 1 X _._._._._._._._._._._._._._._._._._._._._.",
"_._._._._._._._._._._._._._._._._._._._._.X < , 3 Y #.t.s.t.t.o.( ! 7 5 4 2 , . X _._._._._._._._._._._._._._._._._._._.",
"_._._._._._._._._._._._._._._._._._._._._.X 1 4 3 Y o.e.p.O.o.o.X.E Y 3 3 3 3 . X _._._._._._._._._._._._._._._._._._._.",
"_._._._._._._._._._._._._._._._._._._.X m R.D.v.3 K R W &.r.p.W.7.5 I U 3 ~ v.H.!.# X _._._._._._._._._._._._._._._._._.",
"_._._._._._._._._._._._._._._._._._._.X m ^.L.F.3 K R W o.p.a.E.%.K I R 3 ! D.E.^.: # _._._._._._._._._._._._._._._._._.",
"_._._._._._._._._._._._._._._._._._._.X m ^.^.^.3 K R R R W.~.3.( R R R 3 ! F.E.^.^.R.X O _._._._._._._._._._._._._._._.",
"_._._._._._._._._._._._._._._._._._._.j ,.^.^.^., 2 R R R a.b.v.+.R R R , x D.E.~.^.Q.j f _._._._._._._._._._._._._._._.",
"_._._._._._._._._._._._._._._._._.X # D.R.^.^.^.X % R R R 1.3.^.y.R R R X 0 D.E.^.^.~.D.C X _._._._._._._._._._._._._._.",
"_._._._._._._._._._._._._._._._._.X # D.D.H.H.H.X   K I R G.R.0.+.R L 4 ,.$.w :.H.H.H.D.C X _._._._._._._._._._._._._._.",
"_._._._._._._._._._._._._._._._._.X # D.D.D.D.D.X   3 P R W.E.;.( R K 3 A.>.X C D.D.D.D.C X _._._._._._._._._._._._._._.",
"_._._._._._._._._._._._._._._._._.X # ^.^.^.^.^.X   3 3 3  .2.^.7.3 4 3 X * Z Z Z m.m.f.l X _._._._._._._._._._._._._._.",
"_._._._._._._._._._._._._._._._._.X # Y.Y.!.J.b.# @ 1 7 ! 5.9.^.c.! ! ! X * Z Z Z l.n.f.Z X _._._._._._._._._._._._._._.",
"_._._._._._._._._._._._._._._._._.X * f.l.M.D Z Z s X C D.~.^.^.E.A.A.A.X * Z Z Z f.f.f.l X _._._._._._._._._._._._._._.",
"_._._._._._._._._._._._._._._._._.X O f.h.h.A Z Z i X <.E.^.^.^.~.E.F.F.X - F F F f.f.i r _._._._._._._._._._._._._._._.",
"_._._._._._._._._._._._._._._._._.X O f.f.f.A Z Z d X <.^.^.^.^.^.^.H.D.X = f.f.f.f.d.X X _._._._._._._._._._._._._._._.",
"_._._._._._._._._._._._._._._._._._._.O d f.f.f.O 0 v.K.^.^.^.^.^.^.H.D.v.:.O O O O O _._._._._._._._._._._._._._._._._.",
"_._._._._._._._._._._._._._._._._._._.X i d.d.d.# f F.E.^.Q.^.^.~.~.H.F.D.,.o X X X X _._._._._._._._._._._._._._._._._.",
"_._._._._._._._._._._._._._._._._._._._._.X X X A.H.^.K.D.A.A.A.D.D.Q.^.F.6.@ _._._._._._._._._._._._._._._._._._._._._.",
"_._._._._._._._._._._._._._._._._._._._._.X X X D.H.^.E.K.K.K.K.R.K.Q.^.A.,.+ _._._._._._._._._._._._._._._._._._._._._.",
"_._._._._._._._._._._._._._._._._._._._._._.X X D.H.^.^.^.^.^.^.~.^.^.^.A.>.X _._._._._._._._._._._._._._._._._._._._._.",
"_._._._._._._._._._._._._._._._._._._._._.@ X X H J z.g.J g g g z J x.z.H z X o @ _._._._._._._._._._._._._._._._._._._.",
"_._._._._._._._._._._._._._._._._._._._._.@ o X Z A f.D Z o X X = Z d.f.Z s X + @ _._._._._._._._._._._._._._._._._._._.",
"_._._._._._._._._._._._._._._._._._._.@ + X s Z Z A f.D Z O X X = Z l Z Z s X + @ @ @ _._._._._._._._._._._._._._._._._.",
"_._._._._._._._._._._._._._._._._._._.@ + X l D D F f.F A O X X = A D D A l X + @ @ @ _._._._._._._._._._._._._._._._._.",
"_._._._._._._._._._._._._._._._._._._.@ + X f.M.M.m.f.f.f.O X X s f.n.M.f.S X o @ @ @ _._._._._._._._._._._._._._._._._.",
"_._._._._._._._._._._._._._._._._._._.@ + X i l l d i i i + o + = i l l i r o @ @ @ @ _._._._._._._._._._._._._._._._._.",
"_._._._._._._._._._._._._._._._._._._.@ o X X X X X X X X @ @ @ + X X X X o @ @ @ @ @ _._._._._._._._._._._._._._._._._.",
"_._._._._._._._._._._._._._._._._._._._._.@ @ @ @ @ @ @ @ @ @ @ @ @ @ @   @ @ @ @ _._._._._._._._._._._._._._._._._._._.",
"_._._._._._._._._._._._._._._._._._._._._.@ @ @   @ @ @ @ @ @ @ @ @ @ @ @ @ @ @ @ _._._._._._._._._._._._._._._._._._._.",
"_._._._._._._._._._._._._._._._._._._._._._.@ @ @ @ @ @ @ @ @ @ @ @ @ @ @ @ @ _._._._._._._._._._._._._._._._._._._._._.",
"_._._._._._._._._._._._._._._._._._._._._._._._._._._._._._._._._._._._._._._._._._._._._._._._._._._._._._._._._._._._.",
"_._._._._._._._._._._._._._._._._._._._._._._._._._._._._._._._._._._._._._._._._._._._._._._._._._._._._._._._._._._._.",
"_._._._._._._._._._._._._._._._._._._._._._._._._._._._._._._._._._._._._._._._._._._._._._._._._._._._._._._._._._._._.",
"_._._._._._._._._._._._._._._._._._._._._._._._._._._._._._._._._._._._._._._._._._._._._._._._._._._._._._._._._._._._."
};
