/* XPM */
static char *result[] = {
/* columns rows colors chars-per-pixel */
"60 60 52 1 ",
"  c #3F3F3E",
". c #413F3E",
"X c #43403D",
"o c #49443F",
"O c #454443",
"+ c #494644",
"@ c #4B4846",
"# c #484748",
"$ c #474848",
"% c #4C4C4B",
"& c #504E4C",
"* c #53514E",
"= c #58534E",
"- c #4F4F50",
"; c #504F50",
": c #4F5050",
"> c #545353",
", c #595654",
"< c #575857",
"1 c #5B5957",
"2 c #575758",
"3 c #575858",
"4 c #5C5B5B",
"5 c #615C57",
"6 c #615E5D",
"7 c #63605F",
"8 c #5F5F60",
"9 c #605F60",
"0 c #5F6060",
"q c #656463",
"w c #686766",
"e c #6A6867",
"r c #686768",
"t c #6C6B6B",
"y c #706E6E",
"u c #6F706F",
"i c #72706F",
"p c #6F6F70",
"a c #706F70",
"s c #6F7070",
"d c #737272",
"f c #787776",
"g c #797877",
"h c #777778",
"j c #777878",
"k c #7A7A7A",
"l c #807F7E",
"z c #81807F",
"x c #7F7F80",
"c c #7F8081",
"v c #838282",
"b c #888786",
/* pixels */
"6qrrrqruuttttrwwq41*@@@@@ooO%%%%@@oo+@&*67741,>,14wrttw4=@@@",
"tttrwqrttddjdstwwq7665,===&%%%*1545,5516qtttwwqwtrttttw75,,,",
"dprw76qweidkkjdteetteewq776,#@,qeettytewttddhhffduttyywweeww",
"rwq771,,4qwtttttewwwtttreyw1#+,ewqtttttwqqqtddtwq677wewwtttt",
"q77776,,,467qwtttewqttytttt4#O,rrtuttttw964qwrwq66667wwettdt",
"qqqwqw7441447wtiuitetitttpt4#+>tiddddurw6646677qwqww7weydddf",
"wewwwtwq4446qwttttttttyippr4++,tstssstttwqqq67wtytewwwtydydd",
"twwwwrrwq466qwrtuttttutdptr4#O,ystttttrtteqqwwwtytyeeeyttrrt",
"q77wqqrtq063447wttwwruiuptt4$#,tdttwwqqrdrqwttwwweyetyrwwqqw",
"777wwqwwrq61,,14qwwqrttuttr8$$1tdtwwqqwttrwttw7777wettwwwete",
"q77wwqwwrwq61,*,5qwwwreettw1##1dduwwwwwtdtwreww77777qwwrriii",
"etewwqwruttrq4,>,qtutwwqwrw1##1diuttwrttdttwwettyw77qwytttui",
"wwwwqqq777qqq74114qwrwwwrrr4$#1dtuuttttrtttq77wweewqqwrttttt",
"wwwtwq77660qwrwq646qwttttsdq%#4tddddssstttr7qrttyitttytdddpt",
"ddddurwwrtrruddttwq6riddkjjr:%4fkkkkkjjfddtydjjdidgjkhfjkjfd",
"ddisutrttttttsduttqqwwtdddt8>>4tdhhdhddduttidhjsidddddsdfdds",
"08848444800qqq8q8944214q0q42:->4q00q00000000qqqqqqq49466q000",
"OOOoOOOoO%:>-%O+OO######%#$%%%$$$$%%%%$$:$$%%%::$OOOOO.o   X",
"@O+@Oo@@$@#:%%&@++%%;>248844113140<040444<<<>::%->111>&&%>*,",
",,=,=&=,*%%%>11,,=,,49tppptrrrrtuuuuduuuuuurq4*:1wyyyty7wtyy",
"w7ewwwwww1%#,4qqq69q99qrwwwttpttrrttterrqeuurq:>rdiwtffiyyyt",
"yyiytyyit7>O,q6qeeerqqqq00ttstrqqqwweeqq7qruur::tkfwtiiieeee",
"yiyttttdt0:O,014qetrq9q9qqtutrwq0qqwreeeqqqtuu%>tkkdyetew77t",
"iiyetyytr4%O,q044wrq848qqqqtttrrqqq0wrqrrqqrur:>tkkywwyiityy",
"dittuuuit4-O,qq64qqq446qwqqtttrq067eqeeerrwrrq%>dkkiteyididd",
"iididdddd0:O3wrw9644646q0qwwwttq667qeqqetrwrrq%>tklfiyyiiidf",
"dddfdddfs0:O,rttewq9648400wwwq0000q0077qrttrwq%>tddetyyyytyd",
"ddfdddsfhq:O3rtrwrqq6q9444qqqq7qqqqq07qewrrrw6#*tiietyttttya",
"tttissdfhq:O4ttwqqqq0q08446447qwrrrrrqqqqqrtw7%>tiiyyiyidddd",
"7777wwtdjt3O1ewwwrrqqq0964114qwtrurtrqtq660qq6#>eilittiifffd",
"76477wwtdt1O4rrtrtrrrqq466477qwturtttrwq064076%*ylzfttyfkfdd",
"w7qqwwwtsr3O7urrttrrrrqq4q7qqqqtrutrtrrwqqq664%=ylziyiifkfiy",
"iiiddfdjjt2$0dtttdddddsrrtrttttrtusddtttuutrw6:>tvbkxcxccxxk",
"yiiitdddsq2%4wrrrptststrqq0rtttrrrrtrwwrrtttw4%>qdkjjkkkkjhk",
"231,12142:::-,333213322,<344484,>>><2:>,,3132::%%24114214222",
"::::%%%%%$##O$#%%%-%:2:::::::2::%::::>:%%%%%%%%%%%%%$O$#OOOO",
"32,>&%@%%%@@@++#%>>,3244332:%%:2,3144411*&%&%*:**>*%@O+@OX..",
"te7656,,,4664446qtrttpttttr6::4sdttddttee7777444qwwq66q76454",
"ewq7qq6qw7wttrewtsdddsytusdr2:6kjdsdtttetewwwwwewyitttttwtyy",
"666qqqwweetsssstttpsptwwttfr2:0jjurrrwww777wwettttytyydttidd",
"77qqrtrrettttspptrtttq6qwtdr2:8hatqweweee77eeeitrrtttddittts",
"qqrrttuttwrtttttttrwqq4qqepw:%1tyq5qwweeee7etiittttditttdtpu",
"rrrrtttptetuprrputw704q6qqw6%%,rw5577wwwe7eetdtttttddttsdput",
"euttrqtsuwtttttrrwwqqqwwrrrq>#>qweewwwetetetuttrttpddddddstw",
"rreerrrssrrttrtrrwwwqqwwrwr7>%>qweywwwttututttrrttttiddddtq6",
"qq7errttsprprtrrwqwwwqqqq4q1%:1weeewwttyustttuttrwwwrtuttw61",
"errrrprtptrrrtrrq7qqq666q0q1%%1teeeytttttustrrtwqqq7qq7we7ww",
"ueretptrtttrrtq07qqq67qqqww1%%4yywqwruddttstrwwq7qq774577wwe",
"uwwuuttttttrrq767wq717wwrtp8%%4dyq76qdddsstprqqqqqwq41,,4wwe",
"urwttsdsutrrttwwtttw7wettpdw::4iyqwqwryddptrwwttttrqq7644wei",
"uuutsddsurwrttudfddutuiddhhr>-1tyyyyttydddpttudfkdstettewwij",
"uuiusstrwq0qwtrtudsdiusisdpq:-3ryyaddttdddppsddffstdiddyttud",
"22222,2:::>,2,>,2,,,,,2<22,>%&&=222,3,221,,,328442121133,,23",
"%%%-%:%::%%%%%%%%@$o$O$O+@$#%++oOO oOO OO+OO$$%-%%%%#@#OO@$#",
"3140q0qrq4:%26wq645=&&%&===&++o.ooooooO++@+&%%%:,452,&%&&&*,",
"rrrpsutrtr3$qdzgiee777777756755554565665755761%:8eeqqq667747",
"ssddssqttw4Owvvzjiiiiiiiteyyiiitiitidfiigiyidq%:rditttydiyrw",
"tutrtq64q0>Oqjdiueyiiiitttyyyiflgfdgkgkklgifdr%%wrtwrrrtutrw",
"qrrrqq6qwq,O6iitiieyiiiiyyiiiyylkkkgddfjgklghr%*wyyettttuutw",
"6qwwwwwttt3O7ituiiieiddiyiifittikkkdtttddkzzkt%&eidttahdutrw"
};
